<mxfile host="app.diagrams.net" modified="2023-11-03T18:22:47.083Z" agent="Mozilla/5.0 (Windows NT 10.0; Win64; x64) AppleWebKit/537.36 (KHTML, like Gecko) Chrome/119.0.0.0 Safari/537.36" etag="tnM5BZIjrgNm_5CVSjCc" version="22.0.8" type="device">
  <diagram name="Page-1" id="ovgK2ANpID8wsqKaZ1uD">
    <mxGraphModel dx="1114" dy="602" grid="1" gridSize="10" guides="1" tooltips="1" connect="1" arrows="1" fold="1" page="1" pageScale="1" pageWidth="1169" pageHeight="827" math="0" shadow="0">
      <root>
        <mxCell id="0" />
        <mxCell id="1" parent="0" />
        <mxCell id="hiTW0kRV3U5gcolYEDu1-7" value="" style="shape=image;imageAspect=0;aspect=fixed;verticalLabelPosition=bottom;verticalAlign=top;image=data:image/png,iVBORw0KGgoAAAANSUhEUgAAAZAAAAEYCAYAAAByXKB5AAABhGlDQ1BJQ0MgcHJvZmlsZQAAKJF9kT1Iw0AcxV9btVIqCmYQUchQneyiIo6likWwUNoKrTqYXPohNGlIUlwcBdeCgx+LVQcXZ10dXAVB8APE1cVJ0UVK/F9SaBHjwXE/3t173L0D/I0KU82uGKBqlpFOxMVcfkUMviKEHgxgFILETD2ZWcjCc3zdw8fXuyjP8j735+hTCiYDfCJxjOmGRbxOPLNp6Zz3iQVWlhTic+IJgy5I/Mh12eU3ziWH/TxTMLLpOWKBWCx1sNzBrGyoxNPEEUXVKN+fc1nhvMVZrdRY6578heGCtpzhOs0RJLCIJFIQIaOGDVRgIUqrRoqJNO3HPfzDjj9FLplcG2DkmEcVKiTHD/4Hv7s1i1OTblI4DnS/2PbHGBDcBZp12/4+tu3mCRB4Bq60tr/aAGY/Sa+3tcgR0L8NXFy3NXkPuNwBhp50yZAcKUDTXywC72f0TXlg8BYIrbq9tfZx+gBkqaulG+DgEBgvUfaax7t7O3v790yrvx+FsHKuBiR8wgAAAAZiS0dEAP8A/wD/oL2nkwAAAAlwSFlzAAAOwwAADsMBx2+oZAAAAAd0SU1FB+cKBhU1GXT5zQoAAAAZdEVYdENvbW1lbnQAQ3JlYXRlZCB3aXRoIEdJTVBXgQ4XAAAgAElEQVR42u2dfXiU1Z33vzOTeUlIYHhNAmoGiFqFVgIBrLJmcXULghhBL1JZSlplrbaRtQ+7S9WwswzysD5WH4ju1g19GpqmDZcGogZCqwWhvGwgJKhQqwQyATEvBBgISSbzdj9/zNwz90zmLckkzEy+n+uaK5m538597t853/P7nXOfI2tubhYcDgccDgcEQXD/DfQB4P4r4vudEEJIdCOTyfx+l8lkAT9yudz9Vy6XI0G6weFwQC6XhxQQigghhMSfeIQSEKmIyGQyp4D4iofD4fA6WSDvg6JBCCHxIya+Xoj0f6lwiP8niDtJxUPqhYhCwfAVIYQMD0/En4D4iohMJkOCr9cRrnhQOAghZHh5ISE9EH8d5vQ+CCGEXojvJ8FXeQKNuAokIhQUQgiJXcEIJB7+xMT3u3sUllQ0pN/F/6UXpVAQQsjw9kQAePpAAgmHP8GggBBCyPARkEBCkuDPnfH1OigghBAyPAUkmJgkSH/wDVlJPROpcASLoRFCCIlvT0T8mxBMEMIVDnokhBAS20LRVyEBEDyEFUhI+poQQgghsSss/sJZXgLiO9Iq0InpbRBCyPDySgJ5IwmBhumGG9YihBASn8IRSkR69YGE44kQQggZXgLib7+EUDuw34MQQigs/kgIJRgUCkIIIf3yQIJ5IYQQQoan9+FXQPp7IkIIIcOLhME46QfflOPDi+UwWS/jM1Mtc5kQEh8VpikBMqs8dtKrUkKjTMSiyU+icNYbkT9/uJ3m4YvHDrx3oQQ5qd/D83euo8URQuKG24s1sI63xEx6rbDAarZg19lSQAYUzhyYiPjqhdzfDr6fvvBh8++Rk0bxIITEKbLY+tgSrehR9GD3uXf7LBahtCDifSAmy2X85M6f08gIISRKsCVZYb7WHfH+7IgH89jnQQghUSgiFmvEzylnthJCCKGAEEIIoYAQQgihgBBCCIlDEpgFhBAytCjlKnwvPReLJj2Ju7UzMDHxVnzTfQGfXz2Bvd/sxN5vdsIm2CgghBBCPHxv4uPQf2cLJibe6vW7bkQmdCMy8egty/F1lxEvn3wOn7TupYAQQggBCu58BWvvNgAAPmr+AB+3fIjPTSdgvHEGk5PvwLe1s/D36Y/hwbRF2H5fNfSfrcGvz26lgASDS+USQuKdZbf9AGvvNkCAgJ+dWIWd50u9tp8y1eGUqQ6/NxZj5eTnsHHGf0L/nS240NmIj1s+jMp7Yic6IYQMMinKUdB/ZwsA4MXaH/QSD19KG/8L+s/WAAAMM96GUq6igBBCyHBkhe5ZjFRqsb9lD3Zd+G1Yx/z67FacMtVhYuKtePSW5RQQQggZjiya9CQA4HfG/+7Tcb83FgMAFk5cRgEhhJDhiC45EwDwP+0H+nTckUv7AADfGvltCgghhAxHkhQjAACdto4+Hfd1VxMAIC1xEgWEEEKGI1cs7QCAseoJfTpunGv/a5arFBBCCBmOnOn4CwDg3nE5fTruu+PnAwA+N52ggBBCyHCk+mIFAGB5xtN9Ou4fJv/Yefw3FRQQQggZjrx7vgSXey5h3oSHsPS2lWEd84MpP8HMMd9Fh/UaPvi6nAJCCCHDEbO9G//2WQEA4I1Z2/HYrU+FEI/nYbjnLQCA4fP/BbO9Oyrvi3NhEULIEPDh1zuQMWIq/vnuV7E1uwyPTFyGP7Xsxl+uncTZjr/i9pF3Y8boOVgwcSnuH/937uP+ddomtJovRuXEijKz2RzRSaju2KNB0+N9OyXnwiKExAKZ/62GdbxlQOf43sTHYbjnLaRqJgbcp9veha1/NeCnd76EEQkpAID/d3YLXv18bb+neVdeUuH0quv0QAghJFb5wze7sK9lNxZNehILJy7FXaPuwS1JOihkCnxuOoH3zm/HzvOluG414YqlHf+R5Xwb/UdT1yBjxFT8uOYJWBw99EDogRBChpsH0ld+c99e5KR+z/298kIZ1tT+Q1R4IOxEJ4SQKGZ1TS6OXz7k/j4/7ZGoSRsFhBBCopgeuxn5Rxbh8KU/AQBKzhZFTdqiog+E4StCCAnMDdt1PHXooahLFz0QQgghFBBCCCEUEEIIIRQQQgghFBBCCCHExaCNwuLIKkIIoYBQPAghBAAE1yfWkEW5gLhFQ6CgEEJINAqfWBfLZJFRlIgIiK9AUDAIIXFdGce41yEIQkREZMAC4isWc8flYPIuBY2MEBJ3JCQkQHlJFXsJlwFKtSriIjKg2Xil4iH+n5iYSCsjhJAopLvbubKhVDgGIiIRGcYrigdDV4QQEr1Euq6WDzQhhBBCYl9UbooHIlU0igohhES3WETSC+Gb6IQQQoZOQPwN26UHQgghseGBROrVC3oghBBCKCCEEEJiREAYsiKEkNhloHW4PJoSQwghJHoFY1AFhBBCyPCBAkIIIYQCQgghhAJCCCGEAkIIIYQCQgghhFBACCGEUEAIIYRQQAghhFBACCGEUEAIIYQQCgghhBAKCCGEEAoIIYQQCgghhJD4JyG6ktOC6qJi1Jp0WFy4Eln+tiEbqwsWIm3Q0lCPUkMVsKgQK2cO8e3XlcJweFzA+6svM6AKi1G4IouWO8T0Le9D2FBzNYq2NSDzmQIsTA91nkMYF3K/6KNlbxGKj5sAALqIlSWxfgi03V+9EdkySKJaQNKwsGAx2g1VqCqrR5a0sNZ95BIWPlgS46QvREFhPN9gC+rPmCIoHNL6oRALpSJ1eR4bVBQQKVlYuegUDLurUFqX5TLAepTuNkK3qNDVuvBpiUyRtAz9tO5CtR6lrSVM0UEXbHvQVo6rxThbi9rjxgD7O1un4lbt7NUoWJDmbPnsNgIwotjQHuQap7yO9yqkzdUo2lYLTwNNi2xXPvjLA+8C6JOn2uCeXn2ZAVXnJD9InkF9mQGHxmZDe7y2dzrrSmHYDa/7a9lbhOIzmX6v5533nvvx2yL1TbM7T3u3UFv2FuFdZLrTKKbP+758n12QvPfHF9LrS87lY6P+r+mxE+M2A9rd1wpgP/7u6ds6GD8fpLyeEqg8SdK32wDDYdcz6cez6BfN1Sh6D8gcU4vacwAm6aC9aPL29vzYoLe9eJfB8Ms/BSQ6mLkSi78woGp3KepnrgTKqmCcshiFMyWGPGYxCgs8FZ+hDP1qiTiNQ4vFhQXIcosN3CLiu71lbxGKDaVAQCMyofZMJlYXrkSaK20eb8pZuEyzV6NwQZrrezGKsBoFC1aiEGG4z+dMGPdMIVamu9LiyqMsl3hoFxWiQJpP71Ujq2Ahsu7SoWr3KdQjyy3C9WdM0N3vycOG28V0OfOhuCzNb57WlxlQdSUbq0VvsK7UR/AB0/EGZPpL58zp0O2uwqk6IGumNB1+7rmu1CvvUVcKw7ZSpBWuRFaoNNeVwrDbhOxnCl0VhzPvpZ6tNI3is5beV8veIhQXVSO9YGHwvA/wqIxXxgWwA2/7C3TNlYXwCWEFs580P/dUj9LPI5fX4ZW5LKwsTEd1UTHa75c2Gvr2LAaEqdZpFyvSPLb9aQuQ7rKTL4zQzl7d+7nN7F0G+17+hxdR24metWI1srVGHCoqQtU5HRaLhiqGstyGm4aFT2RDe+4Qqpv752prZz/sNoasFYslHkg9Pjpugm6Rx1jSFjzpTNfeloBn9RTQNGTdrgWutKAFQMveQzBqs/HkgjSJt6WD6fhHqA83yVPmuVtSafdkQgsTWprFsIi05ea6trtwTIcORpyqE1tq9Wgw6TB9pitPIU2XKx8C5GnWikIUSkVu5vReXlvAdCIL06cAxi/qe6cjjIZFoVhwQ6V55koUFkpb0M7reqHNRFa6z7OWVK5pCwq87zPgPfXNDoIGaXyv6SU2YdiP1z1FMK8HUub6/CwGihaZ96R5lQPTmXpX3tfj1Dnp9mD0r/zTA4kKnEZatK0WukUFHhe8zQRoM+Fla+lp0KKhP/4u2k2AdoLUmNIxTgu0A0BzC0zQIjPdO11pY9C/q102AWPSvCuH9HHQOq8WIbxDHNBKC20Vqr6oB2ZmoeXTBpimzHO2qtpMgMmIYkNtr4I4LqT3ZpIEJcJsHNylQ9VhZ2Wa1twO05Tp/ltzMx9G9uFiVBlcXqEktBF2mn3DelMCPRx/z3oIrHzBPOiOV7nuwzdsNHD7iVheR6LMhfssIp3H92RCe7wdzQDSmltg0mbi4XCec4TLPwVkqElPgxZajEvng+qLcGhdIQ5nvNunMtl9CvVIR4s7fBVen4d/4dC5XHvXqKOwQ5TTodt9CPXNQNoXRujuWhm4EeHqNK0vM6BqtwGG3c5KNitUmiWVlc4V1hPDk1Hma2NloaQPapsBtZGMs0cqrwfCzX4W6VnI1BbjVB2Q3tYA3P4kB+LEewgrYGtighYwOVsT3i2FflkWxmkBU1tLL6/EI2AmtDd7h71arvTTjsf6CWM0t/cz7T7UnYJRm43VhYXueLjfygRGnNrrHcrwm6chwn66RYWeEEc/Ks3pU0xo+LQap86FF1LJWlGIwsLVyNaa0PBpS8g0Oz2sxSgsDLND1u+zHmKPu6AQhYWLvUONA7afQcrrPpS5Pj+LQcjbrNu1MH5RjfozCDN8FfnyTwGJBmY+jGytEVVl9e4HWv1eLUxifNr10Bs+bXG3fg6dC1Jo7/eOIdeXScI/yMLDs7Uw7i51b2/Z+y5qTTrMW9D3NkzagnnQmWrxrjt+6hxdJu2DGRDSQl5X6hVe8lQmgPF4LUzacZ6QRK88dR5vMJQG7JvxiG4LqoukeRZ+GMt0vBbGQCEVf2lorkeDyRW/DifNksq2ZW+R96gxPxXtw7O1MB6u9lTQIfIgErTsLYKhSHrNUzDCf0XfX/uJfF77lLlw6NOzGKQw1rla1KIvfS2RLf8MYUWHD4KFBauBomIYxLCJ15BCcRhwMQzHnWGOxbO1qLocSJBWYnVbEYpdsV/t7GzoztVKCm0BVsOzfWDD+LJcI2tcaYP3MEy4RigVGxqCxsID3cfiLwzuGDa02Vi9CCje3YD6ZrjPlXWXDlXnjNDeniVx4z3v37jzNOB9in1TnnvQLVqN7MPFqHX1r4QfWjECd2WFf0+uEIjzXkKkecGTyD5T7OkjmbIYq2cfQvFx50i0dL8CX4DFlw2SfhVPCGewRCTNN52Qho1c/VbbDGiYvRoFC0LYz6DmdbAy18d7DPEsgg01HlgYqxYNXnYfKK8kZTCi5T/+kJnNZqGvBwmC0OuvIAhwOBxISUlhrpIwqEep4RSmszAyr4eEFlQXvQs8EXtv9UeSjo4OyOVyyGQyyGQypwj4/I3vEBaJD+pOBQ+pEOZ1JGmuRwMiOVSYADEZwiKx3xIU5zujfDCvh8D/KjOg6pwzNMiei8jCEBYhhAwTGMIihBASFVBACCGEUEAIIYRQQAghhFBACCGEUEAIIYQQCkho6ssMMJT1YRKLulIYDAYYDAYUxdF6AS17i7zyIXi+1KPUYEBpHe2HkHiHLxJGUnBcK50VDOuJ1sTpyQkh8U5UvkgYLetgO9cs0EF3zhhiHWyfNPlZ1xoIsX61v/P6LMDjK06B12p2rc2+KBMNu13Ha7OxuiANH7nT45OvPvkmpsfrGq68bg6aL661QSR5G3B99F73qEP2bNeSwJGcSI8QAiDyLxJGnwcSk+tgO9dySCsz4NBYsZLv6/rVfkJBXmucO48vnSCt2IOt1WxC7WFgdWEh0lxpKTZoke26Xn2ZAVX76rHQnW/A4sJC57HN1SjaVoTqdMlspJfnuWdfbQ47X9DrPr33dd4jxDxqrkbRNqNkFUVCSDQT/X0gMbYOtsc76Ov61eGEhjyt/HDWavbclysfJPeSdZfOtUZDC6oPG73OhfSFeHI2ULsvSP9PX/Il0L6uRbDceZS+EPOmsFASEitEnwcSJ+tgD3z98yw8PPsQincbYNgN7/UX+rlWs3asvxt1rsBoFK/jVfEP7qNuaTMBY6Z75ZFz1T0WTEIoIP1iOKyDHWZOLChA4QK4QkzOhZO0s1ej4J7IX8t/3w4hhAQmqkNYsbwOdkTXP5+5EoWFhVg9WwvTmXq0RHStZn/rwg+RQE7onUfNl00slYRQQPpJnKyDPfD1z33fp2hB/RmTaynaSK7VLK4L/66zH8l1reqiIXiXZeZ07zwKun49ISTaiMI+kHhZB7uf61dLj190CgZp38SUxe7RZxFdq11cF36bAe5ckKQ17Z5MaLdVwWA4hcWFKyPpY2LlMy2S9dV1yJ6tRe3lNA7hJSQG4IJSJKpo2es9ZJgQEjm4oBSJH3qFC13Dk++ieBBCD4SQEHjPAsDRYITEkgdCASGEEAoIQ1iEEEKGDgoIIYQQCgghhBAKCCGEEAoIIYQQCgghhBBCASGEEEIBIYQQQgEhhBASG0R8Nt5r164xVwkhJBo9BnlkfYaIC8ioUaP4lAghJArp6OiIrCAxSwkhhFBACCGEUEAIIYRQQAghhFBACCGEEAoIIYQQCgghhBAKCCGEEAoIIYQQCgghhBBCASGEEEIBIYQQQgEhhBBCASGEEEIBIYQQQigghBBCKCCEEEIoIIQQQigghBBCKCCEEEJIbApIC6qLDDAYPJ+ivS19Pr607iYlv7kaRYYiVDfTyEjscunEMmTsehV1/dwedfdy4OhNuvpRFO2Soeir+LKPhKhMVXM1irbVArNXo3BBmuvHepQaimG4vBiFK7KiP2fTF6KgkBUQiQM0dXin+nfYuPApjJf+/tWryD6/E8BM5lFIvouCx4W4u6soFJAWVL/nFI8Ct3gAQBZWPtOCom2HUN2chYXpHqExuffRIvuZAixMb0F1UTFqTQB2G1DUJp6rHqWGKhjF3ad4i1F9mQFV51xnmp0N7fFaYFEhVrrKR8veIhQfF6+mw+LClciSHHtqbDZMx2thghbZuZloqGxA5jMFzrRCkiYA0GZjdcFCpPm5tu+5Cbm5LMMjSRU40vYUHpvg+bWu+RWsHbMRr1/p3dJ3CgsAbMSux192ScxRFO3ah9tuq8ML53cCmjLULnwK43EURbvuw+viCcYcQVPOd4N6Ep7zL8XW+yvc6ao7IMPj0vS4zuU5ZicyqsXrtuD96nS8YBaFUvzdI5AZp19xb9uatAIvQJo273QvuK0Z78xKc6fxFSzD9PMr8DqAtdOOAKfvA6YJKLgj9H0E2xZVmM1moa+f7u5uobu7W+jq6hK6urqEzs5O4caNG8L169eFAfPNHmHrhq3Cnm/C2W+D8JsT4g/Nwp6tG4QNW/cIzZLvnu11wm/87L+12rV39VZhw4bfCHXi3r/dIGyQ7O+73f/+nu/e9+F9Lff+v63znMud7t7fCblZtNUuFW7bUya0fblR+MdaqUUeEbbu3Cic+HKjcNvOjcIJ6f4Bvx8Rtu6EcNsnR3zOA2Hrl55yWbkHPteS4HM96fcTn8CZVq9tnnO31S6VXLv3dU58Iklba5nwj9J0uc7lOd6Zbs/x3t+d971UqGz1f5/ufPV3X0HucaBcv35duHHjhtDZ2emuv8X6vD9aEH19IM3tMEGLtPRwQkQe7wBIQ9bt2sB+zd5DME5Z7LX/wieygeMfoR4tqD9jgm6Rp9Wf9WA2PGerx0fHvbenLXgS2VojDkn7ZaZM9+811H2EWmTjSYlHlbViMXTnDvntI0lbUIBCiXdCyE3njgcxvW0fLrlb5/vw+pgHfYJXR1F+fifWTnvZ/fv4WW9jq+YVvHPCU07Wpn9X4k28jtfHHHG3yoE0PDarDDj/Kz/9Ki14/+wrWHDb057r3vEymlwezswcAU1SD+KOB7E20P189Su8gDJsnOUpZTNzjmDtldfxfhtw6UIF9krTdcfT2KqBd7o10uO/i4JpG7FXmm7NMtw3wX9/SPl5YOssaVpfxq4x3vkEP/fIEFbE8QlLBdCQ5ssm4FwVDIYqny06AM1oN2kxTipa6WmeUzW3wAQtMr1ELQ1pY4CGcIJybSbAZESxodZnixbjAKQtmAfd8SrXdjEMxzqLRFcM//6k191hrLrmV7A2XQCwz7NLWyNOYSke0XqXk1uTAp/1wo2dwJWdyNjlu2Ujnu21dyPOm4HpKcGbVt7hH/gVkUsddYD5FWTvWuGzZSm2utK1IPntgPdx4cZOIGmtd5+QdjIWoDF0VrY14hR24vXDMrzgs2lBskuszqbj8V3O8NlaSdiLAhKK9HHQogEtzQDSwxMOrauzvWVvEYrPBDlkSqAO+HqcGuz78unz8CYLKwuzPP0k2wyoZT8IiTJmps/E418cxWMTgMNXNuL+HACRGFUUos8jXDzCsRG7Hq/ATFcfRUB8+zykQYMvBjs3g/drPLZQwGNin85pGV4/HZ39INEXwkrPQqbWhIZPWwKIhmtobt0pGLXZWF1Y6NPZHuC0Y7XAlRb4HwicjnFaE9ql4aTmFk/nfHoatPDZjha0XAnvltImaAFTO0KP6E3DwoJCFBYuhg5GnKpjpUWiK4y19so+1PkNXwGYMBnTsRPnTd7l5EJX4FPemrwU6Gr0hMaCMhm3aYBTHf5KcQuOtO3E2mlCWOGe8SkzAXMjLgRJ194bjQHvw2+6TY3YG85t+M2nAKKdI6Dp8WZs1ezEngstUWcSUfgeiNg3Uezz3ofL49Bm42HROqSVcl2pZISUn7MumAedqRbvSs7ZsrcIhqJqtLj6T4y7S1EvXm2fdHRXFh6e7b29Ze+7qDXpMC8M8cLMh5GtNaKqrF7SxCmFweA8nycd4rZTMEKH6RwdSaItjDXmFTx++hWvfgzp9rzbluL10573Qi6d+AleMG/Es7P8l5Pxs9ZirXkFXpHE/i+dWIaM6t/5EZU0PDbVp5+h7Xd4dtcyvN/m/OoRlxa8Xy0Z2dVLDJ/GVs0reFz6XshXr7rfaRl/6zIsuHKf572Nr37lGa3lN91HUXTap38mSD765pPXeyKSdDjvcR/2mJfikVujr1c0OvtA0heioDDN+d7HcUkUSPpeyMyVWPyFAVUGA6rEENEioHh3A+qbgYXpTlEo3m2A4Qtn6Mo5DFhyTmlYaUEBFl/2nE87Oxu6cw3ufpG0BQVYjSIUi9frU4gpDQsLFqPdIO2DkRy/4ElknymW9JE4+0EYviLRF8baCFwB7g8Qkx8/qwK1WIbsXTLXL9JhvP4r04L7y/Ds4XRknA8dWsIdL6O2Q3p+Zx/BYxMAzCrDHsl51k5rxtaz6Xih+SgK7viuUxQO34eMXc40PbbwCM7vuk/S/yJJ64Sn8M60RmScluH10840bR0D7Eme7En340dQtMtzPekw3lCMn1WBXTdk7n4O8T6cfR0vY1dz723ROIxXZjab+/x2iyAIvf4KggCHw4GUlJQ4KSr1KDUcwjh2aBNC4OyPeCc5fJGIRjo6OiCXyyGTySCTOUXY92+Mh7BuBs5pT4q8wluHYNRmIoviQciwo1cYre13eOdKdIaR6IFEA75vtQcdNUUIifdGpddb6tH8NvhN9EAoIIQQMkxgCIsQQkhUQAEhhBBCASGEEEIBIYQQQgEhhBBCASGEEEIoIIQQQigghBBCKCCEEEIoIIQQQigghBBCCAWEEEIIBYQQQsjNIiFWEy4IArq7u2GxWGCz2eBwONyzA8tkMsjlcigUCiQkJECpVPZrpsnhjphn4uydCoWCmUJ7pO2S2BUQq9WKzs5O9PT0BC3MdrsddrsdFosFAKBSqaBWq2lIfawUAcButwMAbDYbFAoFFAoFK0DaI22XxJaAXL9+Hd3d3f061mKxwGKxQK1WIzExkU++n4gVodiaHs7QHmm7FJAYaeVdu3bN3ZoYCD09PbDZbEhKSmLrb4CF0eFwDMtwDO2RtkucRH0nek9PD65evRqRwio1oBs3bsBms9ECBhgmsFqtcDgcw+aeaY+0XRIjAiK29MR4ZqQNqLOzM6IVwXAtiDabbVCeEe2R0Hajm6gOYfkrrDKZDImJiUhMTHTHMR0OBywWC7q6umC1Wp3KKJe7twUzoK6uLq7jHqHWnEqliuv7HCzxoD3SdumBRJjr16/7bY25Ox2N59H+/WfQOn8JbvyfIqhUKqhUKiiVSiQlJSElJQUpKSkhY8t2u73fHaGkd2suXglkj5GG9kjbpYBEIFTgrxDJ5XIkJCQgISEBV1/aCNvFZgh2O7p2/xGWwzVQqVRISkrCiBEjoLjwDRQXvkFSUlJIEenp6WHoIEKVXzyGAwLZo69tig2XpKQktwfsi7SBE2g/2iNtlwIyADo7O/3+Lr6E1b3nI9gufgPBbnd/rF+dhVwuh0qlwvX//Sba859He/7zML/3AdRqNdRqddBrBhvHT/pWEOONQPYoFQ+NRuNurIgfX3EQxUP60Wg0tEfaLgUkku5koMIjjt/u+uQQHDab16enth4KhQL2hkZ0flDt/t30xttA2yUolcqgY78tFgtbICyEfbJHX/FQKBR46qmncPToUfdvooiI4qFUKrF9+3Y89dRT7hfbaI+0XQpIhAgWKhCnhLBe+BoOq9XrI08dD4fDga79B3tt6yh7D0qlMuQ4e7EDPhg1mzTQaAJ98lB+cWjzq2aTBppNNX63te7I89oWbF8WxL7bIwAv8cjLy8Nzzz2Ht956C0eOHHHbhVQ8SkpK8Mc//jGs4aPh2CPQivIVAexxRTlaI5ILzmtsPhalD+nY5ojdK0UkxgVEnOohkAcCAJZTX0CwWr0+yqmTnR1hdkevbZa//BVyuTxgXFoknI60uS+ZYTa7Pgf1wLISNInfzeXImxS9D3vuS2aYX5o7JK32eCGYPYo2qVAo8MQTT+D555/Hli1b3H/FbaJ4/OpXv0J1dTVsNhu+/e1vw+FwBK2w+tKxqz8osUuzGWZzE0qQj4whaDDEm8dJYlhAghUasdUmnzAO8gnjoMr6DpCogcNqReKDDzgnsHPYe3kg5lN/CWtCtci0PmqwWbMZ5TvyvFuBxzb7tBA3owYALpYjr5fnUoPN0t98jg2nJdi6I/rXWQIAABibSURBVA8ZqyqBDTnuNEg9kJpNGuTtqJG0Xr3T0Cqmvx+eVTy9nBWqEhenxygoKMAbb7zh/iseJ5fLoVQqUVxcjD179sBms8Fms+HBBx8M+fLgwOwxFXlr9MCG/agJ5K34tNr9P/NWlK/IQH4FoH9Ag7wdrX5t0m3P4nm8zl2DzRK7rdmkweYd5ciTXuei+N2PzV0sR560TPmWqwf0QEU+MtxpcF7PvW8fRJQvFsa4gAR7gOIQx7Gvrsctf/oAab/5JW75+H2klvwXerQjYbFYoLzjdtgtVq+Ptf2KOwQ2NMajR/7ZF50twbI8pB7bDM0DJ1FyVmwdHoAeeuRsqgEmzUfuskpUHpIU5WP7oV+Wi/mTxAICHBBblmdLcPKB0BV66vJyNG3PBdYfcKbBzz6Vq3JgXCN6UzOQP9V13mObkbFqhueaB2cgf+pmDMe2bCibMJvN6OjowNy5c7FmzRq89tprsFqtsFqtePvtt6FUKvHLX/4SH374ofv3NWvW4K677sK1a9eChqkiW5k5haBySZPbSzkwTeKhBHzmqcgra0LJMqeXU7481WWTAew53BKyyogXRa8d5cibmo8ZByXe07JK5P+LVIQkZcp8APqKfKzZ0QrMWSeJBKzDXLSifEUOTm5v8pzrdI5H+EhEiboXCYO5kGKB6jpSg6+f/IH79zEv/gSqaXfCarUi5d5sIFEN9bS7oJ72LXTu/RMSbp0UMlwQafdV/5AkVDRnHcxmr2AS5q8H9K6W4vwlucj/YD9alzsr+pqP9chd0oRUtKJ8ix76g2a4zzYpD1u2VyJjew3yBhqOWn8A6+aIafwhSpZloPJQK/Im++zXK/3DJwwQ6l4cDge++eYb2O12ZGVlYffu3QCArVu34v3334fdbkdVVRUA4G/+5m+Ql5eH0aNH46uvvkJSUhLGjx8/SPnotB2sP+C0nWO/Rj5K0LQ8VRLSPAC95k2UrypHHvrwzIPac7i2N9/LpsvNeV7e0/wlucAH0gNyUbJqrvf1zhoBv00jH0+szNz7/hjCik8PJBQymQyC3Q6Hxer+CHY7EhISnFNry4C0Lf+B8ev/FeP/bR10Rz/CmH96LjqmiZC46TkbJCY+Lxe5FZXYf9Hpfu/fkIvceakAjDC6QgfScEHGqsqIJCd3qs6roE2eBlSeNbrERI+cPoTMhjMKhQIXLlzAiRMncPjwYXz22Wd45pln8Mgjj+D999/H/fffjz/+8Y/42c9+ho6ODhw5cgSXL18OOIS3Xw2WB3w70TOQP+2Au8+rtfGkK8wj3SfHU+n355kHsOeBhX8HauPO0F3lqowIDyQgMSEgocJMMpkMcHh3lMPhcL8DkpSUhMtbf4nGBxbir2N0+OsYHeAQ4HA4QsazB21mTrGgSdz0A+sl26VhLGn4SqwcenWQDnZnuLPVJqbTWTmF3w8STzOchnMvycnJuOWWW6BSqZCeno7MzExs3rwZlZWVWLRoEfbv34833ngDZrMZCoUCarUakyZNQlJSUsTyUWojTdtzfVrsLrwGfPgO/OjDMw9lz/0WDk/oyXkP/WTOOne4N1cUzTDDa5ydN8YFJNhIKXFBnlHfXwbZiCQ4bDbIRiRh1PeXwWKxQKVSQaFQoLv+M693RARBCDkCK9S1B0LroUpUrj8As9nsCRn5VNjzl+Si8oP9KP9Yj9wl812OuQ66ZcDJxsFpQ1WeNXqFPBpP+3ol4qgzZ0zaq59muBSQMGwiISEBEydORFZWFm677TZs2rQJ+/fvx6OPPoof/ehHePTRR7Fr1y6UlJTgjjvuwL333ov09PSQgzr6a4+py8txYH2lV79V6uQZQIURxjCOD/XMQ9tzHzm2H3qXuJUvT43cw5uUh3JxtKTXYAIStwIS7GU/u92Orq4umEdrceeFv+Du61/jzgt/gXm0Fl1dXZ5WRPIILwFRjEpxhr5CxDcHdT2G041uV7p1R14vl98ZxspH/gZgxuRUH3d8jaQl6BxJE5FOwQ1vSkZ6/Rr5FXq8KHaSSkbV4OJ+VFaIYbXIVLqxQjgLD6lUKvfUJOvXr8e+ffuwZMkSPP300zh79iyefvppLFmyBBUVFXjrrbeQnJyMlJQUKJXKQbPHuS+5OrbFEI4YopK2xKXPua/PPIg9O8VKDMkCrTveDN0/IhW3Y5sHEMLqXT5qPtZ797kME9sdlgISalbMrq4uNDY24siRIzh48CCOHDmCxsZGdHV1weFwwGw2Y/zPfwZ58ggINhvGPv8MZHfeDovFEnJUy2CtUpa6fItzTL4Y3z37otNFl7aKJs1H7jIA0GP+HG93vGk7kD/VE9uuXNIUVkstdV4ucjfkeFcMUtbPgFE87wMnUXJ2nbOQzVmHA+s98XBnqCL8d1ziKQwQziyt4hQ7L7/8Mvbt24fc3Fz8+Mc/xtdff436+np8/fXXeO6555Cbm4uKigr84he/gFKpDCkgA7PHuVgnhnA21bhCVAeg35Dj6QN5ADhgDueZOz1k/QPOUFBIe56zzuUBObevwYsoWRY85OR17S06NB3Ue4lQ8JDVfOgr8pGhyUP5xVTkvVYCiH0gGg1yTpegKcyQL0NYfUNmNpv7POxAbMlL/wqCs59hoFNRC4KAtra2gNutVisuXryIM2fO4OrVqxg9ejRuv/12TJo0CWq1Gg6HA2q1GlqtFoBzCu7u7u6wwlijRo0aNgZUs0mDHBwYlL6UUPOOxRKh7BGA2/uYM2cOli5dip/85CdoampCQ0MDEhISYLPZkJmZCZ1Oh7feegs7d+7EsWPH0NXVhY6ODtpjFBFPtuuPjo4OyOVyyGQyt235/u2Thx51iiaTQa1WB5x/KCEhAampqUhKSnL3e6SkpCAhIQEOhwOXL1/G1atXYbPZoFAo4HA4MHLkSIwbNy6ogKhUKhbWCBBvy7KGskfAGVq12Ww4duwYOjo63OKRnp6O8ePH49KlS2hoaAAA/PSnP8W6detgs9mCjgqkPdJ2Y4GoXFBqxIgRAQusdEGpQC2I7u5uNDU1wWazYeLEiRg/fnxI44j3lgcL4eDYI+B5mfDKlSu4cOECenp6kJ6ejkmTJkGpVLrDYA0NDbh48SJuvfVWjB49OmiIivZI242JBla0hbBErl+/3q+FdcSO9s7OTgiC4J42O1i82b1IFRlwARysfqSbTSh7bG5uxmeffQZBEPCtb33LLR4iYuj1yy+/hFwux/Tp05Genk57pO0OKZEOYUWtgABAe3v7oL/8p1AouIRoJFoiMlncLwsazB67u7thMpmQkJAArVbrt8FitVphMplgs9mg1Wr9igTtkbZLAYkQVqsVV69eHbTpBWQyGZKTk+m6RiAflUpl3MfsaY+0XQqIN1E96FmpVA7aSBSZTOZc+paFdcD5mJCQMCwKIO2RtktiSEAAZzx49OjRES1YCoUCycnJwyLmORStt+H08hXtkbZLYkhAxJbfuHHjItKxqFarkZKSwpZeBCq94TrUlPZI2yVOYqrJM3LkSCQmJqKzszPosEp/qFQqqNVqFtQIFD6FQsHCR3uk7RLEnM+sVCqh1WohCAK6u7thsVhgs9mcqxG6OjfFtdPFoXnDqZMs0m4+AHenGys72iNtl8S0gEgNRHzHgxDaIyFDD3uQCCGEUEAIIYRQQAghhFBACCGEUEAIIYQQCgghhBAKCCGEkCEnZt8D4Ytbw49ofjksXu2RL+SRuBIQq9UacuoIQRBgt9tht9thsVgAcOqIeECskMU1OcRli2/m9BTxbo/RmOeEAtIv+rtKIQBYLBZYLBau9hZniBXzzVhRbrja483Mc0IB6Vcr79q1axFZnbCnpwc2mw1JSUn0RuJMSBwOx5CEh2iPQ5/nJDqJ+k70np4eXL16NaJL29rtdty4cQM2m40WEEcIggCr1QqHw0F7jKM8JxSQAbX0BmMJUUEQ0NnZOehrrpOhr9BsNtug2AztcejznFBA+s1gFVap4Xd1ddEK4tQTiRZ7DDe8E8v2OFh5Tigg/eL69etD0hqz2+397ggl0d8qvpn2qFKpkJiYiJSUFCQmJoYlJLFsj5HOc0IB6XeoYCgLUU9PD0NZcYjdbo+IB9tXe0xISEBiYiKSkpKQnJwMi8yOpKQkaDSauLfHSOU5oYD0m87OzsjdoFyOpKQkpKSkICUlBUlJSZDL5X4LLYlPERkqe5TL5dBoNEhKSsKIESPQ3nMdGz4pRv4uPayCHUqlMuxhr7Fsj2yMDR+ibhivIAhBC49CoQj6Apb0hS2lUgmVSgWNRuPeXzRu31izxWIJO8xAYqsyG8i7CqHsUUStVkOpVEKtVqPHYcU7J3Zi1xefwOZwhnR++9ke/GjGElit1rDCPLFsjwPNc0IPpN8ECxUoFAr3sqGBPikpKRgxYoT7k5SUhKrPruL2l2qQ+fMa91u0gUIVfeLYZmg0GuTtaB2e1nOxHHmaPJRfDGfnGmyW7tunY29eizhU6EqlUnnZ295zR/FUxSv4/ak/wGzvgU2wwybY8fvP/4DmzstQq9VQqVRhXTsi9uj6LdAnb0er61losPlYsOccZDu9EHog0YI41UOgVp5arca2Q63YvOe8332mTxqB5/52Ih6+ayQ+/msH3q1twydfmhBOWNZms4VduIFWlG/RQ79eD/2qX6Nm+TrMpT2Fz6Q8lJvzhsyrHQx7TExMdHsen7Z9hTf/53c4c9m/XdrsNmyt+T02/12B247FitZsNvt9jyIi9jhnHczmdRIRfxO6s+XImyQVCADIxckteSh/zWcbarB5aj4qAcwYojwn9ED6TTD3XvQeXq1qwi+WT0Xjf9zb6/PQ3aPx1r6LUCqVKDncjMX3jMW5zffC7hBgdwiRazVd3I/KCj3mvzQfeuix30/rrGaTtLW3GTVhbmvdkRdgm6sVf8zZItRoNNCsKEcrarDZvb9vK38zaqSt0E017halv2t7t1h7ewjSdOdtN/ptqfY+vgabNTnQoxL5U10t2SH0QAbyklsge1Sr1dBoNLhqvYGf73sbz3z4Kn6TuwFHny4J+Hnt4TXuPjnpJ1DneqTtMRS5S2ag8pCPN31sv1OUhjDPCQVkUAu71S5g6czxfreteegWnLxwAwBw6Mw1935WuwCrXYiY0bceqkTl+vmYi7mYvx7Qf1zjvX1HHnJOl6DJbIbZbEbT9pPIWVGO1jC2ZayagQPSbV6VfCXytwBbzGaYzQegr8hHhuZN6M469z+wvhL526Vp0SPn4/kwm80wny1B7oYcaKYa8aLZDLO5CSXL9HhTDHkc2wzNAydR4jqX+eAM5E/1VPI1mzSSdDch97QelVLxmJqPGQddx5qbULKsEvn/Uo5WzMU68wHokYuSs2asmxM7BSSQTSgUCqhUKvzzx1tQffYIrK6+ju+88/0+fYKFVCNpj2Exbz5mfLAfUgmp+VgP/UPzWVOS2AhhheP62uwCxq85HHQfcXuo/frndtfg16sqoT9YDgCYu6oEuVPfRPkq0f33bE91HZG6vBzm5a7WeBjb5rq3bUHJBxl4c8cPUb7cJQlr8lzHuioLvOgOO8x9SA9saUQr5rr2yUXJKtfZJs1H7jIAS37oOn8q5i/JRf5ZpydRvkWP3O1NnhDGnHU4sF6DnO01yHsJ2L8B0B8Ur52KvNdKUFlRGSAk5Tw3PogNm+rrseJAjX+a+xRWVL7iCXk5/PdbfGusDv809/v424xZ+KTpBP5vze/x18vGIbLHcJmL+dPexP6LeW473r9Bj/kvAfuHMM8JPZBBxWp39PsTEY7th35ZCX4otqQnzUfuskqP+3+xESeRC52/wtvnbamYPC1E6GGqrk/JnzE51c+vRhgrem/TTc0NnLZJk/3ExT3htIxVlXFbcHp6etDV1YUZE27H/bfNgEVweiAWweb388KcPBz6+iSm/GcuDn19Emvm5rmPGXR77IuEPCQJYx3bD/36+ezbI7EjIOEMWxTDUf35DPTaYmclKvKR4Y71ZyC/Aqhc9WvUDFtTEoUjBye3N7nCb7kxY1P9OfbGjRtob29H4bwfQZA5bevLZ9/Dl8++h7X3/gMsDqv786AuG7+s3wmLw4pf1u/E/IzsgN7KTbXHOfMxw3WcM3w1d8jznDCE1X9Fk8tDdh7aXELQ8985YZ9X/Y8Hwrp2SC7uR2VFLkp6jWRx9gHsP7YOc+dMxgxUwngRgK+nMamv21rReBrA1MHOeR10y4DKxlZgjscLMZ6tBPCi/7RdbMRJADpJK7ipLA+p8dTCCmKPNpsN169fx8SJE/H0PY/hgzMH8Uz1qwCAbQtfxs/mrsDmo9sBANVnj+CH33kU75zchWdnPI6PjMdgcdiGyB77GMZan4P9x+YDrvAVITHjgYTzApI4ospic+DPf/4zDh48GPQjCAhrFFY46zG0HqpE5bJczO9V+efhRXfn5Vz8cHsu9FvKPR2Sxza7RjyFse0BT6d56441yK/Q48Xlg10tpyJvjR6Vq9Z4RkYd24ycDWIfim+6W1H+L/nwClJVGGGU3FO0hLDCqoj7YY9qtRoJCQlob2/HC7OW4we7/x0Whw0Whw0/2P3veD5rmfv7vx0uxv23zkDbC3/AvFtn4N8PbwspIJGzx76GsfTQP5AzoPDVQPKc0APpNyqVKuCbv3a73bkAz7a/BeCcHdXhcODTTz8NeL577rkH169fcx8TbJ6h0OLl7KzM3b7Fbyt77kN64AFX5+Xychw4q0GGJt+11dlKnAsAIbY1IQ8Z7qGdehwwD9E7JnPWwXxwMzRTNciXpEts2ab6pFu/vQS5Yie62OGu0Tu/LytB00E9Mh6oxP7X8pA3aS7mr69EzlQNKrc3oXyeT85u0iAHB2B+aa6kBV2JXMn1azZp8ObUJpT3UUwHEk4JZo/i1CVyuRwj1SNgE+w+15W7f/vL5UY8Ubkuwo2pPthjXzrT5ziHAuOh/lsdQ1jDA5nZbO7zcAlxhIX0ryAIcDgcSElJGVCCBEFAW1tbwALb3d2Ny5cvw253TlBntVqDvrGrVCqhVCrR1dUFhUKBsWPHIjEx0e8QyVGjRtHw4xDxpb1I26O0DGi1Wuw+fxQrqtYDAMoWb8Dfp2eHLA89PT2wWCx+p3GPZXscSJ6TwaOjowNyuRwymcxtW75/Y9oDkclkzvmE/LT6HA4Hrl27hi+//BIAcPfddyM1NTXkjbe1taGhoQEAMG3aNL/GrVKpKB5xyECXiQ1mj+J2h8OBS5cu4eG0WTD/7M8AnNO/nz9/Hl1dXTCbze6XBhUKBex2u7tBM3r0aCQlJcWVPXKpaIawbiojRowIWGBHjRqFadOc41pHjhwZViGTHjNq1Ci2mCggEbNHUUSuXbuGpqYmt2crl8thtVpx8eJFXLp0CWq1GsnJyVCpVLBYLLhx4wa0Wi2mT5/u9030WLZHCggF5KaiVCqRmJjodyI7tVqNCRMm9NmdDnZMsNl9SWyLRyRa8cHsURQQjUaDzs5ONDY2AgAmT56MW265BWPHjg0oPmq1GlqtNq7sMVJ5TiggA2LkyJGwWCyDPqunQqFAYmIiLSHOkMlkEZ1SPJQ9JiUlYerUqUhNdXZnJycnu0NWw8UeI53nhAIyIEaNGoWrV68O2rQIMpnMb/yZxL54KJXKIbVHhULhXrRsONrjYOU5iW6ierC2UqkctJEoMpkMI0aMYOgqTj2PwbAZ2uPQ5zmhgAwItVqN0aNHR7RgKRQKJCcn092OU89jMF9ioz0OfZ4TCsiAW37jxo2LSGxYrVYjJSWFnkecIU6vPhStYNrj0Oc5iU5iqskzcuRIJCYmorOzM6x1qqWoVCqOtopT4bhZI3+Gqz3ezDwnFJABt/60Wi0EQUB3dzcsFgtsNhscDoe7c1Mmk0Eul0OhUCAhIQFKpZLGHgeIz1B8kzYaKt94t8dozHNCAYmIYYtv9xJCeyRk6GHPFyGEEAoIIYQQCgghhBAKCCGEEAoIIYQQQgEhhBBCASGEEEIBIYQQQgEhhBBCAQkPThdCCCHRS6TraHoghBBChl5A6HEQQsjw9Ugi6oHI5fJBW36WEEJI/xmMurlfAuJPtWQyGQRBgM1m45MihJAow2azQSaTBay/+0NEpnMXxQMArFYrBEHgGhyEEBIlnofVavVq3EeqbpaZzWahv4mS/i9+F/+Xfh8s94kQQggCehTSv1Lvw9cTGXIPROp1+H4PFuIihBAy+OLhT0j81c8D8UYiGsIKlRCKCCGEDI14BPJEBioaERMQX69DFJFgYsJ+EUIIiU5v5KZ4IIE8kXC8EkIIIUMrIpEiIRKJ8+0LoXgQQkh0ikgkxSQhkonzJyRS2P9BCCFDLxaRFo6ICkgwIRmshBNCCImcsNx0AfGXUHodhBASP6Ix6AJCr4MQQuIfTudOCCGEAkIIIYQCQgghhAJCCCGEAkIIIYS4+P9dQ1OFlQ6jaAAAAABJRU5ErkJggg==;imageBorder=default;" parent="1" vertex="1">
          <mxGeometry x="40" y="40" width="400" height="280" as="geometry" />
        </mxCell>
        <mxCell id="hiTW0kRV3U5gcolYEDu1-2" value="1" style="ellipse;whiteSpace=wrap;html=1;aspect=fixed;fontStyle=0;fontSize=36;fontFamily=Times New Roman;" parent="1" vertex="1">
          <mxGeometry x="20" y="20" width="40" height="40" as="geometry" />
        </mxCell>
        <mxCell id="hiTW0kRV3U5gcolYEDu1-8" value="" style="shape=image;verticalLabelPosition=bottom;labelBackgroundColor=default;verticalAlign=top;aspect=fixed;imageAspect=0;image=data:image/png,iVBORw0KGgoAAAANSUhEUgAAAZAAAAEYCAYAAAByXKB5AAABhGlDQ1BJQ0MgcHJvZmlsZQAAKJF9kT1Iw0AcxV9btVIqCmYQUchQneyiIo6likWwUNoKrTqYXPohNGlIUlwcBdeCgx+LVQcXZ10dXAVB8APE1cVJ0UVK/F9SaBHjwXE/3t173L0D/I0KU82uGKBqlpFOxMVcfkUMviKEHgxgFILETD2ZWcjCc3zdw8fXuyjP8j735+hTCiYDfCJxjOmGRbxOPLNp6Zz3iQVWlhTic+IJgy5I/Mh12eU3ziWH/TxTMLLpOWKBWCx1sNzBrGyoxNPEEUXVKN+fc1nhvMVZrdRY6578heGCtpzhOs0RJLCIJFIQIaOGDVRgIUqrRoqJNO3HPfzDjj9FLplcG2DkmEcVKiTHD/4Hv7s1i1OTblI4DnS/2PbHGBDcBZp12/4+tu3mCRB4Bq60tr/aAGY/Sa+3tcgR0L8NXFy3NXkPuNwBhp50yZAcKUDTXywC72f0TXlg8BYIrbq9tfZx+gBkqaulG+DgEBgvUfaax7t7O3v790yrvx+FsHKuBiR8wgAAAAZiS0dEABkAdgDSrBLplgAAAAlwSFlzAAAuIwAALiMBeKU/dgAAAAd0SU1FB+cKBhYBBkCdjVEAAAAZdEVYdENvbW1lbnQAQ3JlYXRlZCB3aXRoIEdJTVBXgQ4XAAAgAElEQVR42u3df2wb14En8O/IchcyLpEXIQk0MNytLcEYEU4CZIE1BdDL5IItpGpxjsyqRZHayR5CntrFnoWLkwCFdq8lNou43UotAnDJ/BFfHRStQyleRBWR/tGyIiAahQOkURmuKzZFjSAFSCax6gUMrBPN/SG95zfDGXKGoiRK+n4AQiTn9w++77z3hpT285//3FhdXYVhGPIhXgMwvS9eW9m9R0REnUvTNMf3NE2TD/G6q6vL9H5XVxe6AaCrqwurq6tyJl1dXabQ0DStLkDU0BALYZAQEe3s4HAKEmt4AEC3CA9riIjQEA/x2rpwhgYR0d6ohajh0dXVhW7xhggRa5OV29oHw4SIaGeGhpdaiAgPTdPWAkS8YQ0N1j6IiFgLcQqTbnWA2oTlVPtQn7P2QUS0u0KjWW1ENGGZAsQwDFMTllrrYO2DiGjv1kLU2of63FQDsdYseOcVERGDQx2mvt8t3rDr/7DOoFlYMEyIiHZeaLgJFbuaSLd1BLXZymsoNFsxIiLaOQHTqDYCwNwHYh1RrYXY9YOw9kFEtLtrIY2auWz7QOzusmrWic7aBxHR7gwUp1pIt5sahl3tgoFBRLR3QsWuQtHtVD3ht82JiFgTaRQm3U4h0WhGDBEior0RHo2Gd3udUbPOdCIi2p0h4ipA2rkAIiLanbrZv0FERK1UIrq91C4YMEREeycgmtZANmvGRES0u3Vvxl1V73e9h9n/fAULH74JA6y1ENHusL/6mZ1XyPfsx+lDT+Lxe55se02l265msZFAeb/rPZz7w1fw7QdfwsWTP0UXunjWEdGu0Jf+M9zx/9eOWudPb3+Cnyy/DPRjQyFi1wLV5TRiq4/Z/3wF337wJZw58nWGBxHRNlvtWcWn/+0TzLx/cUNlu522l/ALH76JJ478Lx41IqIOCpFPbt9p+3zbHiAGDNY8iIj2AJb0RETEACEiIgYIERExQIiIaDfq5i4gItpa9+4/iOjhszjhjyDki+De/Qfxpzs3UajlcLWaQ+bG/8Of7txkgBAR0V1f+OwpfPfhV3Dv/oN1ofKFz57CFz57ChP6/8Uzbz2FN/94paO3hU1YRERb5H/2nUP6xOu4d/9BXK39Es+89RSOz/05Pve6huNzf45n3noKV2u/xL37DyJ94nV86fCTDJC9hj86SUR2NY9/PD4FAHjmrafw5XwEr924KJuq/nTnJl67cRFfzkfwzFtPAQC++/Ar+MJnTzFAiIj2qnv3H8R3H35FhsdrNy42HP+1GxdNIWJt7mKAEBHtEV/63JOy2apZeKghIpqzvvS5JxkgRER70d+sN0Nl/nDR03Ri/BO+CAOEiGgvCvY+BACe76oS45/w/TUDxNmrGNE0aNpRPPdr8Vy8Voer761PObL+/sird9/89XM4WjeuOo+1hzrJ3UmPOo9jO1+HdSAiWnfP/l4A8PzdDjE++0BceQ8XHvoafqq+Hj2Ko5rlvYdG4K2ofhUjpnms+enXzAHx6oiGhy68VzfOUTUtiIg8unVnpaUg6NTg6NAAAfDFSzAMA8alL67nxXt4z/oeSljyUqb/egmltZnjkmHAMAyIWf30x6/K2sU//dQ8jvH2szgC4L0L3wTrFkTUquLK2wDg+ZZcMf7V2i8ZIK7y4ytPrD154iv4YoP3PHnwOPS1uMDXNA2aNgLMrYfE3Nq8f/2jDN4zjaNBe+jC+nseA4uISPGz9b6M6OfOepouun731c869BvpHRYgRxA87uY9r57A3CU1eu6GhLvmqfdQXOKHgIha89ofLuLWnRWc8EVcf7v8S4efxAnfX+PWnRW85vHurT1bA9k0T8yt1TiUpinApnnqyLN4W4ynPNYrKkREnv3pzk38n7fWguO7D7/SNES+dPhJ+cXDb71zrmN/WHH3BEhpCaIu8eo3RdOTeGNk/a6q9c73B1/E72SIrDVPPfjV6Nrr9y7gm686TGdXI5F9J0REzt784xXTt8t/Ev4FoofPyo5y8Qu9Pwn/QoYHAPzjA1Md+3MmOz5AnviK6Gy/gIfWm6W+Zi3Qn/hnPHsEsO3fOBLFVx9cC5VviY71r62Psz6jI8/+M54AgAe/iugRyzgPWcKKiMjBazcuInb1cdmc9a8PX8TSyMf4w+MGlkY+xr8+fBEnfBHcurOCZ956CrfurMgfVhS/o8UAaWuCzOHtZ48obxzBs5fuNlGteRAv/u5tPHvEMu0XL8H43Yt4UM7q7t1Zcm7Pvo3fvfigMp9L5o78L16qm4aIqFFNZPDNv8C3lybwsz/+u7zFF1i72+rbSxMYfPMv8NqNi7LZC1j7Jd+fhH/RUbf2ateuXTPaOcPRG3+JPzxu7OkTRNM0GIbBTwrRLtOX/jPc8f/Xli7znx6Yxt8d/d/y9c/++O94+qr3Jq391c/gJw8vsgZCRLRXfOudc6bvgfzNZ/9Hx6wbA4SIqMM9ffWUDJHp//hWx6wX/6XtJmDzFRG105/u3MSX85GOWy/WQIiIiAFCREQMECIiYoAQEREDhIiIaN2m3YXFO5GIiBggDA8iIgAw1h87jdbhASJDw2CgEBF1YvCJsljT2pMobQkQa0AwMIhoVxfGO7zWYRhGW0JkwwGihoV4/vnX9/EkI6JdZ7/xGeyvfmbnrbhWHxztCJENBYhdeLzz32/yLCMi6kC//e1v2xoiLQeIXXgAQG9vL48SEVEHa1eI8HsgRES0PQHiVBMhIqLOq3m0s7zu2uhKEBHR7gmWLa2BqCvAYCEi6uygaGc5zT4QIiLa+gBhjYOIaGfXSDqmBsJAISLavYGxqQFCRER7R1s70YmIaO/UQnZEDeRXP57Eq39/FL/68SSPPhHRbquBbIZ3si/h0jeO4nr+RzAM4Hr+R7j0jaN4J/sSjxwREQOk3oc3foMffv0I3n7je/K+ZfXx9hvfww+/fgQf3vgNjyAR0Tbp7rQVujj+eQDA0b96vOm4b/zL3wIAnkz+fkPLVH9UzGpwcBCFQmFX9PGIbQGAqakpnDt3Tg6bnp7GxMQEACAUCmFxcbHty4/H4zh16hSGhoa2dLutx7fZayLaoQEiPsPlq69v6XJDoRCy2aypcCuXy7vyoIdCIVy+fNkUIJcvX97UZcbjcaTTaZw6dQqdd84xOIha0XFNWE/92++xumpgddVw/bwdxsbGcOXKFdN7c3NzGBsbq7uazWaz8nU2mzX9FPL09DQ0TZMPawgNDg7KYYODg67nLZ7H43HTPKzLVKd3cvz4cVkTEQqFAmKxmO341m2anp623Saxjuq6ieHpdBoAMDw8jHg8btomp/3VbL5O6+dmH1j3e7v+xScRA2Sb3Lp1CwCwahhYXb8qdPNcTLcRIyMjspBTr8pHRkZczyObzWJiYkL21czPz6O/v99UII6NjcnhY2NjdSHSTDqdNhX+mqbJpidRQDcjagGioBV/dV23rTmo8weAiYkJGQIq67Ltxmk0PgCcOXPG03zt1m94eLgu5IhoD9RA1sJh7eH2ebvEYjFZmJbLZRw/fnxD8xsaGpLNI9lsFoVCwdRsJJ57vWI2DAPLy8vy9fz8vKkZplnTmwi169evm/5aw7JcLstQXV5eNv0QWzqdrlvO1NSUDE4AWFpaAgAsLi7K2s38/DxSqZTcDvUhakJWTvMV6xcKhUzzCYVCdaFCRLs8QA4cOLAWDuvNU26fi+k2Std1WZjOzc3ZXpE3C4xQKGTblCLma22yKRQKcpjbkAOAvr4+03KBtb4NL/MR/R6XL1+2nVaEVCwWMy1vamrKNFytxanr064mJKf5iuUXCoW6feomSIloFwXIvn37WmrCEtO1oxlLLVS9NF8Ji4uLMAwDsVgMw8PDpnZ965WyeKi1Eq+8hIY1LEVBWygU6vp6WqGGTDPlctl134OX+RLRHg2Qu000a4/ri7NNn7eTKKhEzWEjBVcqlZLNKXNzczh27Jht88x2EeEo+hPswlI0dVmbq0TzkNq/49Xc3JyszVib5NwSy3cKZgYP0R4LkB+cPSRrF2+m/qHp8x+cPdTW5Y+NjWF4eNjxijwUCpnu1kokEvK59Y6scrmMQqGAkZER2byldpqL8dUaitO8200UrqKPw66w7evrk01m/f39phqDtVnLLXEX1rFjx2QYaZrWUhiJ9bM2Ydnd4UZEuzxAvn/mkKxZeHl8/0z7QkRciTs1Xy0uLiKdTsuCanLy7u9zDQ0NIRaLyWH9/f2Yn5+XBa34cp4YPjw8jOXlZdNwp3lvBhEOTrfvipqU6PMQpqamZEe4W+fPn5fPl5aW5L5S5ymW4+WmglQqVbf+m/VFSCIy065du+a5IUjcMaPe+bO6ugrDMHDixAnuVSKiDnT16lVomoaurrt1B9Gq0Mp3oTrmm+iffPIJbt68iQ8++AA3b96EYRjYt28fPv30UwCwfa5pGg4ePIj7778fBw8eRHd3N88QIqIt0jEl7srKCpaWlrC8vIzbt2+7nq6npwf9/f144IEHcN999/GIEhHttQA5cOAA+vv7ceiQ9/6Mnp6etn0XhIiIdliA9PT0tBQeRES0Pfg/0YmIiAFCRGsqlQoSiQSKxSJ3Bm2abn7QKkilUhgdHUUwGKx7f7O/i5FMJnHy5EnTsjdrGwV1W3O5HPL5vGl8dZvFlxl9Ph/Gx8fr1v306dMIBAKO+6xYLGJ2dtZ23m7WVQiHw4hEIh1/Hnk9X8R0uq4jGo3K9zOZDEqlkuv9ZR1vYWGh7py2sn5RVcxjq859t6znkN25uJnHr9P2BwOkA83Ozm5qIb6dUqkU4vE4AoGA/DD4/X4EAgHUajXHgiaZTMphuVwOmUxGFnKVSgUAZHhYP+RinNnZWfnBs86jEeuHNZFIYGBgQC6vk9ht+0ZVq9UNTd9sHycSiboLiWQy2faCeaPEBY56PmQymS1d10AgwPBggDQ2OjratHBTr9jUq7WZmRkAQK1WQzweN12t2F29qFf1zZYh5q9+WMSVvwgHu5qFWrjpui4L3kAgAF3XUa1WEQgEUK1WcfLkSdvtrdVqcn4DAwOmZVWrVfj9ftPV8ujoqKkgtX7wrPPwwufzyUJV3d9iHzXaD9b9re47N8epUc3JadtbvQoWIe/3+1Gr1VzVIt3WNtVxAJjej0QiyOfzpukTiQTi8bjr/S3OVb/fj1KpVLd8t9ugyufzdf9XJhqNIplMolgsolQqyWUBMNXkGh0/dZg6f3E8rdtld6542Q4GyC4XDAZRKpVQLBZtT4ZMJiObUaxX0upVvPhwOlHnY71ytQ5Tr7LUwkUUzuIDrtYsrOseDAbr3iuVSjI0arWaY2GgBpzaTBUIBFAqleTP3VtrJU7effddzz+RL+Zbq9VkYFlrTXY1LDGs0f52e5wa1ZzcbnszaqiL/aQWjI22sVlt0zpeIBCAz+eru4oXBaR6EST2vdv9XavVoOs6JicnUSwWsbCw4Go6p5qdz+ezrXWK9VanF83BzY6fWrMuFouYmZmRFxU+n8923b3u472CneiWwmBhYcF2WKlUwsDAgLxaUz/c1hO5kVKpJNvyg8GgqZC2DqvVaqhUKtB1He+++25dITw5OWmqWbiRTCYRDodNYRSPxzE5OYnJyUksLCygUqk0bUJRayBuAiCRSCCfzzvWduxqYuIh+qjUbVT3d6P90Gh/NztOjY53u6lX7aVSqW7fuj3WbscbHx/HyZMnTfu5UQi63d9if4ltUmtRrZyvbs+xXC5nqmk7HT8RiGJ7gsGgKUSd1r2VfcwayB6k6zpyuZw8+axXHnZNAV6upJ0+IHbDRGE3MDCAmZkZ+UEQV0vWKrebQlntjLZr2/X7/U3Dwdr/4aUNWa01NeK1zdluP1hrUV7ZHe9WCgx13ayd5dYaXqNC0+2xdjueWjsVV9LN/g1xK+ddq9P5/X7HCzrrcSmVSnV9Ik6f142cExvdfgbILheJRJBMJm0/xE53aLhlV/hUq1XTlZNKXAGpHdXqa9ERGo1GHe9eUgsHL221ooPdLjSKxaLrK8NGTTXt4rQfrNvgVbs6Tt3cNKBeSTv1jbk51m7GE30H6nqpfWPNjq3bddnodOL42QW3evei2gTl5vO6kXNiI9vPJqw94vTp03Vt5aJmIj6AyWSyYUiIAlc0PTnNRz2ZrcPU9l9d1zE7Oyubr+w6Qu0CrVF42G1HtVqV4/l8Prk+atOZ2v/RiN387ZpnNqLZfnDa316Pk9PxbnftN5/P19V+vRxrN+Op/X1ej43bZbRrunA4XFdAZzIZOS9r01Wz4yf6f8S2i+bVdp1vrIEQAoEAwuGw6fsR0WhUtuMDaFjVV0/6cDhcdzWaTCaRz+fh8/lMV5vWZVjvYFILF7GO6h1G4k4l9cMkCsbZ2VlTKIpAqVarjnekjI+Py/VR771vdOeWtaCym7/a+bjRq/xm+0Hdp7qum/Z3s+Pk9ni3iyi81f6pZtuoFvhuzwlxbiUSCdM5oTYt+nw+2dzodn83Cp9G04nmJrtzIRKJwO/3m84h9VwUx0f9rIbD4YbHT5zXYtu9HFsv+3gv4P8DoW3j9jsh7ayt8AthPBf2sl37/0Bo72lHZ2YzyWTS1Ey4FTUJ6sxzgVgDISKiDqmBsBOdiIhawgAhIiIGCBERMUCIiIgBQkREDBAiIiIGCBERMUCIiIgBQkREO0Pbf8pkZWWFe5WIiAHiXW9vL/cqEdEewCYsIiJigBAREQOEiIgYIERExAAhIiJigBAREQOEiIgYIERExAAhIiIGCBEREQOEiIgYIERExAAhIiIGCBERMUB2vXK5DE3TMD09DU3ToGka4vE4stms6bWgaRqy2ax8LcYT1PlomoZyuWxa3uDgoBw2ODhoGtZo3uJ5PB43zcO6THV6IqLN1M1dsKZUKsEwDGSzWQwPDwMADMNAuVxGf38/zp8/j76+vobzyGazmJiYgGEY8nV/f798PTg4iLGxMSwuLsqCf3BwUL52I51O14WOanh4WC6PiIg1kC1w6tQpAMDQ0JDptQiN5eVlz/McGhoyhUmhUMC5c+fkcPHca63BMAzT+szPz5tCw1rrISJigGyi/v7+hq/dBkYoFLJtTrp+/bqsMaiPQqEgh7kRi8VMwaaGXigU4oEkoi3TMU1YlUrF8Ur8kUceweHDh3fEDhXNUfF4XDaFidpCKBTy1FzlBkODiPZ8gLz88su4deuW7bD3338fzz//PPbt27djdmwqlUIqlcLg4CDm5uZw7NgxFAoFnnFEtGt0TBOWU3iIYXNzcx2xnqFQCFeuXJGvE4mEfG69I6tcLqNQKGBkZEQ2b6l3XonxRZ9Fo3kTEbEG0qJCoWB7Bd/V1YVHH30Ujz322Jasx+LiIjRNk3dDzc/Py6aqoaEhxGIxU4jMz8/L/orFxUV5C66wvLxsGu40byKiTqNdu3bN8z2f4o4f9c6f1dVVGIaBEydOtLQizz//PLq6utDT0+Nputu3bwMAXnjhBR5NIqIGrl69Ck3T0NV1t/FJXNBavxKw42ogvb29eO655zxN8+KLL+Ljjz/mmUFEtMV4Gy8RETFAiIiIAUJERAwQIiJigBAREa3rqLuwVldX8dFHH3meph2KxSJmZ2fla5/Ph/Hx8abTVSoVpFIpTE5O8mwiIgbIdrjnnnuwsrKCCxcutDTtRuRyOeTzeVMIZDIZJJNJVyFCRMQA2UZPP/10y/8MSfwabavy+bzpn0YBQDQaRTKZRLFYRDAYlDUNYXR0FMFgUL6XSCRkAKk/QWKtmYhhPp8PAHD69GkEAgHH6SqVCmZmZgAAtVoNuq5D13W5TjMzMww5ItrbARIIBHD27NktX26xWITP55OFuEotmFOpFOLxOAKBgAyTYDCIeDxuasLKZDIIh8OIRCLI5XLIZDKIRqN1w6xNZtZhau2nVqvJwCoWi6hWqwCAarUKXdd5FhPRtmAnOgC/3990nMnJSRkydmEjlEolDAwMAAAikQhKpZJpWCQSAQAEg0FZC7EbVqvVUKlU5PBgMCj/inmqyyIi2rM1kO0Mj4WFBVfjZjIZUyA4UZu6AMggUAPDbrjKaVx1mmq12jDMiIgYIJsoEAjIq31rYZxMJnHy5EkEg0EkEgmMjo4iGo3W9YfY1Vbs1Go1x3VwOy4A6LqOhYUFNl8R0bZiExaAcDhcFwiZTAYAZGe1eN6s5qDrOnK5HADIvgynYWpIWIc59csAwMDAAJuviIg1kE4QiUTg9/tNd0Gp3wMJBAIIh8OmO6h8Ph+q1arsyxB3YUWjUSQSCeTzeQAw3d2lDtN13dRMZZ2u0fdKAoFAw4AhItoKHfP/QPaajXwBsVKpYGFhQd7dRUTkxq7+fyC7XTKZNDVbWb974ob40mMr0xIRsQZCRETbXgNhJzoREbWEAUJERAwQIiJigBAREQOEiIgYIERERAwQIiJigBAREQOEiIh2hrb/lMnKygr3KhERA8S73t5e7lUioj2ATVhERMQAISIiBggRETFAiIiIAUJERMQAISIiBggRETFAiIiIAUJERAwQIiIiBggRETFAiIiIAUKbTtM0aJrm+HpwcND0ejvWiYh2jm7ugr3LMAyuAxGxBtKqcrkMTdMwPT0tr4bj8Tiy2azptXrFnM1m5WsxnqDOR9M0lMtl0/LEVb6maRgcHKy7Gneat3gej8dN87AuU52+1at/ddut6yiWHY/HTduoTmO37U7T2a2DdR9at0mdjjUYIgbItiuVSjAMA/Pz80in07hy5QoMw8Dy8jLS6XRdENjJZrOYmJiAYRhyXv39/aZCdGxsTA4fGxurK6CbSafTKBQKphCYmJiQr4eHhze8L9R5FAoF23VMp9MAgFAohL6+Ptvlnjlzpul0VvF43LQ9Yn2mp6fla3WfqvuWiBgg2+LUqVMAgKGhIdNrUcgtLy97nufQ0JBsoslmsygUCjh37pwcLp57qTWIZh91febn501NQW7CrpGpqSkZciJErPOMxWIwDAOLi4tyndSHmM7KOp21ZpFOpxEKhUzzCoVCMlTEeljHsZsfETFAtoT1qtbuKtdNYIRCIduml+vXr5uajcSjUCjIYW7EYjFTsKmhFwqF2rIv1JATy7MG6Pnz522nbdak5DSduoxCoVC3j0R4iO22jkNEW69jOtErlYrjlfgjjzyCw4cP74gdKq6E4/G4bNYRBWMoFGr7lXK7QmMjyuVyS4HbquXl5brlaZqG5eVl22YxItrlNZCXX34ZpVLJ9nHp0iV8+umnO2rHplIp2fwyNzeHY8eO2TbpdCK1v0H0WTQKiLm5OQB3m75aae5Tl2FtnhIPEQ59fX2m951qSUS0RwLk1q1bDYeJQmq7hUIhXLlyRb5OJBLyufWOrHK5jEKhgJGREdm8pXb2ivHVdn2neW+liYkJU9OQU4e3cOzYMdN0rdZG+vr6EIvF6pqn1LvB7O7AEiEnmvKIaGvsmO+BFAoF2yv4rq4uPProo3jssce2ZD0WFxdNhdb8/LxsqhoaGkIsFjOFyPz8vCx8FxcX676spza7NJr3VlKX66bZTWy3WO+pqSkZKNls1lPBnkqlTDUf6zr09fXZNmGx9kG09bRr1655/iaXuMtGvfNndXUVhmHgxIkTLa3I888/j66uLvT09Hia7vbt2wCAF154gUeTiKiBq1evQtM0dHXdbXwSF7St3IzSUTWQ3t5ePPfcc56mefHFF/Hxxx/zzCAi2mK8jZeIiBggRETEACEiIgYIERExQIiIiNZ11F1Yq6ur+OijjzxP0w7FYhGzs7Pytc/nw/j4eNPpKpUKUqkUJicneTYREQNkO9xzzz1YWVnBhQsXWpp2I3K5HPL5vCkEMpkMksmkqxAhImKAbKOnn37a88+aCxv9CYt8Pm/6p1EAEI1GkUwmUSwWEQwGZU1DGB0dRTAYlO8lEgkZQOpPkFhrJmKYz+cDAJw+fRqBQMBxukqlgpmZGQBArVaDruvQdV2u08zMDEOOiPZ2gAQCAZw9e3bLl1ssFuHz+WQhrlIL5lQqhXg8jkAgIMMkGAwiHo+bmrAymQzC4TAikQhyuRwymQyi0WjdMGuTmXWYWvup1WoysIrFIqrVKgCgWq1C13WexUS0LdiJDsDv9zcdZ3JyUoaMXdgIpVIJAwMDAIBIJIJSqWQaFolEAADBYFDWQuyG1Wo1VCoVOTwYDMq/Yp7qsoiI9mwNZDvDY2FhwdW4mUzGFAhO1KYuADII1MCwG65yGledplqtNgwzIiIGyCYKBALyat9aGCeTSZw8eRLBYBCJRAKjo6OIRqN1/SF2tRU7tVrNcR3cjgsAuq5jYWGBzVdEtK3YhAUgHA7XBUImkwEA2VktnjerOei6jlwuBwCyL8NpmBoS1mFO/TIAMDAwwOYrImINpBNEIhH4/X7TXVDq90ACgQDC4bDpDiqfz4dqtSr7MsRdWNFoFIlEAvl8HgBMd3epw3RdNzVTWadr9L2SQCDQMGCIiLZCx/w/kL1mI19ArFQqWFhYkHd3ERG5sav/H8hul0wmTc1W1u+euCG+9NjKtERErIEQEdG210DYiU5ERC1hgBAREQOEiIgYIERExAAhIiIGCBEREQOEiIgYIERExAAhIqKdoe0/ZbKyssK9SkTEAPGut7eXe5WIaA9gExYRETFAiIiIAUJERAwQIiJigBARETFAiIiIAUJERAwQIiJigBAREQNke/3qx5N49e+P4lc/nuQRIyJigDT3TvYlXPrGUVzP/wiGAVzP/wiXvnEU72Rf4pEjImKA1Pvwxm/ww68fwdtvfA+GYdQ93n7je/jh14/gwxu/4REkItom3Z22QhfHPw8AOPpXjzcd941/+VsAwJPJ329omZqmAQAMw5DvZbNZDA8PAwDm5+cxNDS0qdtttw5262I1NTWFc+fO7ZgTrtF2Dg4OolAo2A4jIgZIU6LsKF99fdvWoVwub2l47DWhUAjZbNa0X8vlMncM0Q7TcU1YT/3b77G6ag0y9LUAAAqYSURBVGB11XD9vN36+/ttwyObzULTNNNDLfgGBwehaRri8Xjd8OnpadN02WzW9foMDQ2ZmvDm5+flMLX20WgZYt3j8bhcT1EbUKezm6bZ9lrHa2ZsbAxXrlwxvTc3N4exsbG62ord+jhtrzWE1O0cHBx0Pe9W9hURA2Sb3bp1CwCwahhYXa+KuHkupmsHUdDY1TzsmpHOnDlT9146nZZX2n19fYjH45iYmKib1/T09IZqR8vLy/J9t8tIp9MoFAqmglSdTt1Gt9trHS8ejzfchpGREbmPhMuXL2NkZMT1fshms5iYmDCFqgh+cRzHxsbk8LGxsboQacbLviJigHSIVWPt4fZ5u0xPT8sCw3qFDKCuMx+AqYARYrEYDMPA4uIiyuUy0uk0QqGQadpQKFRX4HutHfX19clQ8bIMwzBM4TM/P2/qdxBX8m63d2pqylQzWlpaarodsVhMXsGXy2UcP358Q8dO1NJEuBQKBVPtTDz3Wmtwu6+IGCDb7MCBA2vhsN485fa5mG6jJiYmZGGRTqcdC5tmTTXnz5+Xz8X8CoWCqblFFMReCiBxBT01NWWqHXlZRiwWAwAZPqLwFTWmVrZX1By89BXpuo7r16/L5itd1z0HRigUsm1OEvO1Nr8VCgU5zI1W9hURA2Sb7Nu3r6UmLDHdRi0vL6Ovrw9TU1MAgEQiYbrSdNvGvxni8TgKhQJisVhb77pyKgi9bK9awLo1MjKCy5cvt9R8JSwuLsIwDMRiMQwPD5v6Qay1MfHYyL5jaBDtgCYsw1h7XF+cbfq8nURBeO7cOYRCIRQKBdmHMDc3Z2quUZs13DQ5ORVobgrf6elp2USVSqU2ZRlWrW6v130tag6trKOQSqVkk93c3ByOHTtm29RGRLs8QH5w9pCsXbyZ+oemz39w9tCmrMfk5NrPpkxMTKBcLuPYsWPytaZppg7bZgVlLBara16yuzPIibhSd5pHO5Zh1er2ejE2Nobh4eG6u6/UK361L0qtEVrvyCqXyygUChgZGZHNW+q2i/HVGorTvIloBwbI988ckjULL4/vn2l/iIhCCAC+853vYGhoSLaJiytz0dTVrGM2lUqZphUF2OLiYtvWt93L2Mj2emnGUv/aNVGl02kZhiLU1fUTw/r7+003FojtFsOHh4dlE2WzeRORO9q1a9c8NwSJu1DUu1FWV1dhGAZOnDjBvUpE1IGuXr0KTdPQ1XW37iBq8q3073bMN9E/+eQT3Lx5Ex988AFu3rwJwzCwb98+fPrppwBg+1zTNBw8eBD3338/Dh48iO7ubp4hRERbpGNK3JWVFSwtLWF5eRm3b992PV1PTw/6+/vxwAMP4L777uMRJSLaawFy4MAB9Pf349Ah7/0ZPT09bfsuCBER7bAA6enpaSk8iIhoe/Bf2hIREQOEOkOlUkEikUCxWOTO4HGnXaybJ30FqVQKuq4jGo3K9zOZDEql0o7/foD1C3Lt2J5kMonTp08jEAjYDl9YWMDo6CiCwaDt8Fwuh3w+b7te4ngI1vmI7fH5fBgfH7ddr2q1itnZWdfbbF2mEA6HEYlEOv7c9XpMN3rOOy232XFvdD62ui2bpVgsms4hu/NtM49fp+0PBohH1Wp1x29DIpEwfaBzuRySyWTbPwhWaqFkp1arORY0qVQK8XgcgUBAfoj8fj8CgQCSyaScLpfLIZPJyGVVKhU5j9nZWfnBs47XiPXDmkgkMDAw4BiUnVTAdcI532wfb9f56JW4wFHPh0wms6XrGggEdsTFKwPEkvqi4PL7/ajVarZXA9bX1g+zXUHU7IrL+jqZTELXdXmlHg6H4ff75XKaXR2LAlUtpCORCPL5vGk7na72m22TetUPAOPj401rD2pBdfLkSdtCUdd1WWAHAgHouo5qtYpAIIBarSbnNzAwYFpWtVqVQaOuq3U8L3w+nyxUZ2ZmZPhNTk56qikBwOnTp2VANrrqtjtXrERNYXR0dMMh4nTOu6kNehmv2fkopk8kEojH4673d6VSwczMDPx+P0qlUt3y3W6DKp/P1/1Pm2g0imQyiWKxiFKpJJcFwFSTa3T81GHq/MXxtG6X3bniZTsYIFtILajeffdd6LpuOkkaaXTFm8lkZGHv5WrY7sOj67rpdaMACQQC8Pl8dVdN6kltd7UvTko3V/GZTAa6rsv1aDQ/63bZfRjEQ1UqlXDy5ElUKhVZGIvtUwvAUqlk+5Pw4li2UrDWajX4/X7bWlOjbVWPuZeagttzxa7WtRnnvNvj6Wa8ZudjPB6XBabY9273d61Wk5+NYrGIhYUFV9M51ex8Pp9trVOstzp9MpmUF0ONjp9aey4Wi5iZmZEXFT6fz3bdve5jBsg28vv98uCVSiUMDAy0dCVnLdRLpZK82ohEIp5+tE+cmOLDp75Wl+lkfHwcxWKx7spHTKOGid18nLZJXJGr4eFmfmqhp65HMpmUtQdr7SYcDiMQCDTtmLXWatQrtmb/IdHuClEEm/jAWguORtuq9iMEg0EsLCy4Wv5GzpXNOOfdHE8v4zU7H63c7m+xv8Q2qbUot+tm3S9um7rUGrPT8ROBKLZHXCiJ88pp3VvZxwyQbaIeFLcnkPohUK+orR8KaxPKRq8cvVCv6kWhqq6fWn32sk3iatUaLk7za9S26/f75ZWwWpirzXSNjonYn+r06nJEs0izD57XNme7bbXWlLyyO1daKTDUdbN2lns555sdT6/jOZ2Pre7vdk8nQtXNBWOpVKrrE3H6rG/knNjo9jNAtlAul/N8sNXCSlRPnZqNtipERFutWnBY+xREp2Y0Gq1rY222TeJqNZfLyUK+0fy81ORSqVRdG6/oA7ELjWKx2DBg1G1uF6dtta6nV+3qOHXbTNronHd7PN2M1+x8bHbR1uq55XU6cfzsgls0VwWDQVMTVLPjJ2ogm3G+bTd+D8RS0OTz+bqqvNpkBKy1q6sfDNGR7DTPXC5XN26jebar5lEqleqafkqlEvx+v22zjFifZtukNhuUSiVUKpWG87MWJNZ5V6tVU8ehUwehz+eT+1Lt21D7P+zmL7a5XZptq/WYi8Kj2TF3Ole245x3ezzdjtfsfNzI/m73dOFwuK6AzmQycl7Wpis3n3Wfzye3XXxfpl3nG2sgHUKcyGq7t91JFQ6H6z4YTndfRKNRJBIJeTeVWl13mmcrV+x2Vz6Tk5NIJBKmTly1KSccDpvuFhJ3HTXbJtXp06fl8p3mp37QgsEgqtWq7R0pokCdnZ01rbMIlPHxcbkv1fvy1f4Pp/mrnY8bvcoPBAINt1U95rqum67uGx3zRufKVp/zjbZRLfCb7Qsv56PP55PNjW73d6PwaTSdaG6yOxcikQj8fr/pHFLPN3F81O8yhcPhhsdPnLti270cWy/7eKvx/4HsAl7u7OK+2tp9tVO+EMZzYW/Ytf8PhFrXjg467qv2SSaTpjbvrahJED83rIEQEdGOqYGwE52IiFrCACEiIgYIERExQIiIiAFCREQMECIiIgYIERExQIiIiAFCREQ7Q9t/ymRlZYV7lYiIAeJdb28v9yoR0R7AJiwiImKAEBERA4SIiBggRETEACEiImKAEBERA4SIiBggRETEACEiIgYIERGR2f8H1m4I8/4XLYMAAAAASUVORK5CYII=;imageBorder=default;" parent="1" vertex="1">
          <mxGeometry x="480" y="40" width="400" height="280" as="geometry" />
        </mxCell>
        <mxCell id="hiTW0kRV3U5gcolYEDu1-5" value="2" style="ellipse;whiteSpace=wrap;html=1;aspect=fixed;fontStyle=0;fontSize=36;fontFamily=Times New Roman;" parent="1" vertex="1">
          <mxGeometry x="460" y="20" width="40" height="40" as="geometry" />
        </mxCell>
        <mxCell id="hiTW0kRV3U5gcolYEDu1-9" value="" style="shape=image;verticalLabelPosition=bottom;labelBackgroundColor=default;verticalAlign=top;aspect=fixed;imageAspect=0;image=data:image/png,iVBORw0KGgoAAAANSUhEUgAAAZAAAAEYCAYAAAByXKB5AAABhGlDQ1BJQ0MgcHJvZmlsZQAAKJF9kT1Iw0AcxV9btVIqCmYQUchQneyiIo6likWwUNoKrTqYXPohNGlIUlwcBdeCgx+LVQcXZ10dXAVB8APE1cVJ0UVK/F9SaBHjwXE/3t173L0D/I0KU82uGKBqlpFOxMVcfkUMviKEHgxgFILETD2ZWcjCc3zdw8fXuyjP8j735+hTCiYDfCJxjOmGRbxOPLNp6Zz3iQVWlhTic+IJgy5I/Mh12eU3ziWH/TxTMLLpOWKBWCx1sNzBrGyoxNPEEUXVKN+fc1nhvMVZrdRY6578heGCtpzhOs0RJLCIJFIQIaOGDVRgIUqrRoqJNO3HPfzDjj9FLplcG2DkmEcVKiTHD/4Hv7s1i1OTblI4DnS/2PbHGBDcBZp12/4+tu3mCRB4Bq60tr/aAGY/Sa+3tcgR0L8NXFy3NXkPuNwBhp50yZAcKUDTXywC72f0TXlg8BYIrbq9tfZx+gBkqaulG+DgEBgvUfaax7t7O3v790yrvx+FsHKuBiR8wgAAAAZiS0dEABkAdgDSrBLplgAAAAlwSFlzAAAuIwAALiMBeKU/dgAAAAd0SU1FB+cKBhYFK2EuFCAAAAAZdEVYdENvbW1lbnQAQ3JlYXRlZCB3aXRoIEdJTVBXgQ4XAAAgAElEQVR42uzdeXCc933n+fdz9n0BjQYB8L4kkJIoybFlWqZMW7IdHb4orsdOJM1UMkuOUjOz1szE/iPDSW1xt7KZ1K5dMzWWRWdSsePNJjLFOBlZSjQ+aFEirVuUBIInSAIgQKDv+3qO/aPZbQAELwk6KH5fVSgAje7n6ge/T39/v+dQ0um06zgOrusy9/vcL2DWz21zfxdCCPHBpijKeb+3H2v/PPNLVdXzvuvtHxzHmfX9YgFyodCQIBFCiKsrOGY+drEAmS9E9CsND6k+hBDi2qxCLlmBzBcel1N9SJgIIcTVWYFcSRUyqwJpP/nthIcEhhBCfHgC5UpCpNOF1Q4Kx3E6L7pQgFwoOCRMhBDi6q1CLhQkc7u12tXHrApkbhXSDhGpPoQQ4tquQi5Ujegz/3ipbiupPIQQ4tqoRC4WIO3f9fYD7SCYGSTtn9svuFRYSJgIIcTVFxqXU43M97M+98kX6r663ICQEBFCiKszPC4WIPN91y92SNfc6uNiM59ZwQghhPhwVSEXDZD5qo+5P1+s0pDgEEKID1egXCw8ZgXIhSqMmSEigSGEENdmqMwXJvrlhMbM58gYhxBCXLuVyKwAuVBIXGpsRAghxIc/PC72d32+6uJSg+XSfSWEENdeiMx9jn6xF8vYhxBCSKhciH6x8Q0JCyGEEG+rAplLxj6EEOLarTjOq0DerQkLIYT4cNPfjaOqDmZf4r8e/j/4+dkncZGqRQgh3pdqAoU7F93Hv7n+P7Ih9tEFr1T0+SqLdxIoB7Mv8eW9H+d/3/Bf2bXx71BR5V0UQoj3gYPDj0a+x5f3fpyfbP71OwqRec8ZdBe4/Pj9A1/kU72/zUMr/0DePSGE+AD44ch3+dXUP/LfN/7DwlYhCx0gy/9OZeQrllQeQgjxAapEVv6dzqmvOAs63QVv5V1cCQ8hhPgAUVHflfFoaemFEEJIgAghhJAAEUKID5x8Pi8bQQJECCGEBIgQQggJECGEEBIgQgghJEDEe0UuVimEkAARQgghASKEEGJhnTp1inQ6fcG/V6tVxsbGPvDroctbKYQQ752xsTHS6XQnQLq7u88LjyNHjmDbNrZts3z5cqlAhBBCQDweR9O0eSuRmeEBEAqFPtDr8oEJEEVRUBSFgwcPdn5u/z7z7zMfA7jvvvtQFIX77ruv89jMacx87sxpKIrCj370o/OW41vf+tYFn3Oh6c5dhvY07rvvvlnTm/v3ucsthPjw8/l8XHfddeeFyNzwWL58+XnViQTIJdx8882zft+yZct5RyfNfc7lBtRcDz744KyAuO+++/jP//k/n/ecb33rW29rXX7605/Omt5Pf/pTVq1add5jb3f6QogPT4hcbeHxgQyQe++9F9d1+au/+isARkZGznusXQ1crpnPdV0X13W59957Afibv/mbznN++tOfznrO66+/DnBeqFyJ119/Hdd1WblyZWd95j42NDQk/1FCXOMhcrWFxwcyQL72ta8B8MADD1z0sSuxYcOGWZWIoig8+eSTuK7Lk08+CcBf//Vfn/ecmZXOlQRW28qVKzvz3rp16wUfE0KIq9EHLkBuvPHGy3rsSs2sXmaGxOV2H7355ptXPM/BwcHLekwIce2ZO+ZxoYF1CZAPgAceeOC8rik4v3tq5cqVnefN/Hq71Y8QQlwqPJYvXz7vwLoEyHtkeHi48/Mf/dEfzfrbj370o07FAa0urZkhcvDgQX7nd34HaI1RtAfW575uvopk5tiJEEK8nfDo7u6+4NFZEiDvovb4yMjISKexn9ugP/DAA50B67njG+0xiQ0bNnQG1h988EEUReHBBx8E4Jvf/GYneNrTaT/n7RwRJoS4dqVSqQsOmM8NkWKxKAHybnrggQc6DXzb3PEOgBMnTnQa/7Z7772XEydOdH5/8sknOyHS9s1vfpM//dM/nTWdudOY+xohhLiQJUuW0N3dfcGjrdohkkgkPtBnoQMoruu6CznBZX+ncPorruwlb+fNUBQW+O0QQiygfD5PJBK5Kpf93Wib5VImQgghJECEEEJIgFyTpPtKCCEBIoQQQgJECCGEkAARQgghASKEEO+1q/UQXgkQIYQQEiBCCCEkQM6joODgyJYVQogPCAcHBeWDHyB3LrqPH418T94xIYT4gPjRyPe4c9F9Cz5dfaEn+G+v38GX9t4GwAMr/xWq9JIJIcT7Vnn8aOR7/KeD/5q/3/zCgk9/wS+mCHAw+xL/5fBOfn72SVzk7GohhHg/KCjcueg+/u31O9gQ++jVESBCCCE+/KR/SQghhASIEEIICRAhhBASIEIIISRAhBBCCAkQIYQQEiBCCCEkQIQQQkiACCGEkAARQgghJECEEEJIgAghhJAAEUIIIQEihBBCAkQIIYSQABFCCCEBIoQQQgJECCGEBIgQQohrhv5uTLRSqTAxMUE+n79qN0wkEqG/vx+/3y/b5Crf9kKId4fiuq670OExPDzM0qVL6enpuWo3TDKZZHR0lMHBwXfckH1YtsnVuO2FEFdRgBw/fpxIJPKhaCiTyST5fJ7Vq1fLNrlKt70Q4t2z4GMg+Xz+Q9NQ9vT0LEiX04dpm1xt214IcRUFiBBCCAkQIYQQQgJECCGEBIgQQggJECGEEBIgQgghJECEEEIICZBr1PT0tGwEIcS7Sn9/Zz/N3kcfY19qxkPxTWx/eDOJa/DNePTRR0mlUuc9Ho/Hefjhh69oOoODgyQSra24c+dOtm/f3vldCCGu8gAZYvfOPQwPbmHHw+t/8+junTy2c5hN2x9m8zXY3m3ZsoX169efFwh79+5l8+bNb2uaO3bskD1dCPFhCZBp9j66h+Sm7eyYkxLrt+6gZ++jPPbEXtY9vJkEQ+ze+SzxLYMM79lH6/P5IFt2bGX9hSqZWVXMfK+PX1UBdccdd/Dss892AmR6eprHHnts3uBpVzH79u0jlUqxdevWWRXIzp072bJlC3v27Om8dm51snPnzs7PmzZtYt++fRcNoV27dgHw0EMP4fV6531OrVbjhz/8IQDbtm2T/zwhJEDebn4cYjgVZ3Dd/C14Yt0g8X3DHJreTKtdS7FvT4otO3awHpje+yiP7dwNO7ay/lx4DA/+Joym9z7KY48yI0Rmv35o9072dALq6vPYY4/NqlR2797Nnj17WL9+PQ8//HCnC+tCFcuePXs6gbB7926eeOKJThfZzp072bRpE5s3b543qC5kamqKH/7wh/OGSDs8pqam6O3tlf86IT4k3p9B9GSKFD30XKj1TvTQQ4pU8jcPDW75TcWR2HwHgwwzPAQMPcu+1CB3zCgnEpvvZxP7eHZo/tevHxyEVIrkVfIm7dmzh8HBwc7vO3bsmNXNNfNvl2PLli2zXtsedxkaGiIej3eCJ5FIsGnTpktO76GHHqK3t7cTIrVa7YLh8dBDD8l/nRBSgbyX4sRnXcy2h3gchpPTTJMEUuzZuZM9c1+VvPqORNqzZ8+s7qV2Iz9fNTGzq2lBcj2ZPO+qwZdzFWGv18tDDz3UCYp2JQKcFx4X6uISQkiAXJ6eOHGGSU7DvH1I00mSxBm83CugX/TIreRV9YbM7ZoaHh5m69at8wZHu6tpaGjovNB5r80XIoCEhxAfYu9PF1ZiM3cMptg3s49pZn4cGiYVH+Q3QySzu7MgSSoFPT0JEj09V1V31JXYunUrg4ODsyqNdjfTjh073vZRWRfM9Z4eksnkeVXJlYZIuztLwkMICZB3xfqtWxgc3sPO3bNDZGj3Th7bB5vun11RDO/ZzVDnOXsYjm/ijvXA+jvYFB9mz6N7mf7NRNi581H2fgjOpWtXH7t37+48NvNckenp6U718U5PHmxXPnv37u08tm/fvrdVifT29kp4CPEh9z6Ogaxn6471DO3eyc6dM7pf4pvYvuP87qjBQX4zzjGryyrB5oe3w6OP8djOdmMX/1CdR9I+7Hb37t1s3bqV4eHhWVXJjh072LlzJ8lkkkQiweDg4KzDeK/Eww8/zM6dOzvBsWnTJoaHh684RORQXSE+/Bb8nuivvPIKH/nIRxZwiq0TDtmyg63r3/sNtBDrs/Db5L0zNDTEs88+e0Vnwn9w9yUhxEKSa2GJWWGxc+fOWV1hzz777BUfJiyEuDbosglE2/r160kmk7NOHmwf6SWEEFdhgLTGSsR7Y/PmzRIYQojLIl1YQgghJECEEEJIgAghhJAAEUIIIQEihBBCvFsBEolEruj6SR9kyWSSSCQi2+Qq3vZCiKsoQPr7+xkdHb3qG8xkMsno6Cj9/f2yTa7ibS+EePcs+KVMACqVChMTE+Tz+at2w0QiEfr7+/H7/bJNrvJtL4S4igJECCHEh58MogshhJAAEUIIIQEihBBCAkQIIYQEiBBCCCEBIoQQQgJECCGEBIgQQggJECGEEBIgQgghhASIEEIICRAhhBASIEIIISRAhBBCSIAIIYQQEiBCCCEkQIQQQkiACCGEkAARQgghASKEEEJIgAghhJAAEUIIIQEihBBCAkQIIYQEiBBCCCEBIoQQQgJECCGEBIgQQggJECGEEBIgQgghxOXT342JHnz9Nf7+b3+EVUri1ZqsXbWYGwevo6sryl/+1Q/J5LLcsP5mVqxaSS6V4dDwW0T8Qf7Xf/8N9v/0f/KzX/4M22nS09vF137366SzKTTNJBiKUK42URQN1VVQFFBcQLFAsXABzePFtm1cxyHo82I1m3i8fmq1BoY3iOkPky+UKBYqhIJ+DMXlicf/mp8//Y+cmU5xJufw+3/wr9m6dSvj4+N4TQ+qqpIvFBkZGSEUjdE/sIQTJ06yfsMGctkSjqoQDnfhOA2alSJWo4puemk2mxiGQaVSwePxoCgKhqc1PU3T0HUd3fDQ3dXNkiVLCQaCskcKIa7dCuTQW2/xew/8Ds//6hecPXsGQ1M59NZb/Oxnz5DJZLBtG13XqdVqvPzyy0xOnUXXTNLZDH/5X/4brx98lUqpRL1exXVdcCyCgQA+n5dSqYTqtuajKMqs722BQAC/v9UQ1+t1DMNoNdaaSbPZBMDj8WKaJpVKBcuyiIRjxGIxDMNDIhHHcRwqlQr9/f00Gg2q1Sr9/f0MDQ1x7PAR+hYl8Hq9ZNMZRkdP8cKBA3i9JqVSCcdxAHAcp7NsoVAIv99/3rK2n5fOpHlr6E1K5ZLskUKIazdA9uz+/8CuEvLr+E2NarnA2Ylxjh4Z5u9/sodSvkC9XqdSqXDo0CFGRk5SKBSoVus899xznD59Gq/XxNAUdE2lUqmgKAo+nw9FcVFUd94Qaf9cKlWwbRtFUdA0g1AwgqqqBAIB4vEeFFfFsWxc16VardNoWNi2i6bq5+ahcObMGX74lz/AtR0cx8LrNTlx/Bger0m5XCSdTlOv13Ech2g0SrFYxHEcYpEIqAq66UXTNFS1tfzNZpNao0G1Xv/NhlI0ULTOsjuOw5kz47JHCvEumNlGiA9wgBw/9DqqWyPg04EGxUKWeHeE9YPXYWgKXp9JvVojn89jmh4cXGzXJRyNsXL1GmqVKj6PFxWFcMCPrio4zQauY2EaBipKK0jO7QuK6s4KEsdxUFUdn+nDMAyKxSKvvPQq+/f/mtOnxzBNE1AJh6NEIhEMw6RQKFAqlfB7A1x33XXceOONbNy4kbNnz5JIJKjVakQiEfp6F1HI5ZmaOIPH0DkyfIipsxPcsG4Q125SqVRoNBrU63UajQaqqqKqKq7roqoqsVjsojt3vpCXPVK877Zv346iKDz99NPvyfyefvrpzvwUReE73/nOgk//29/+Nk899dR7tk4SIG/Tz//xKaYnp6iW0rjNKuGAQX8iTt+iHm5Yt45lSxYTiUQAWLP6Ohb19hMKR/H5g6xYvhKfz0ezUaNUKqKqKuFwGFVVqVar2LYFOKiKguKCSvsThYOKgqoo+Dz+ToOsuCrNukUqlWJoaIhMKs0//P3/4KUXX6FUKmFbLgoarqtgGB7C4TArVqygWa8xOnoK17XJpjMMDx2ikMty5swYA4v7KRQKFAoFTNMkFAqxdOlSVFwioSADff2Ypkm1WsO2HWKxLlyXc1VWFddRWl+u2+qiQ+18nev9esc+8YlPdLbB3H/G73znO52/feITn7gmPmm2G6b3slF8Lz/1bt++fUHXa9euXXz729/m7rvvflv73ZW6++672bZtG/fccw8bN27kG9/4xoJun7vvvptHHnmEe+6554rXSVzcgg+ir1oRZ2oihV0vE/TFsetVvJ4udFWhWivj8XhYsmQZimrgC0WZnp4mX6xSrTYxdJ21a1dTLmTI5lLksmkU10ZTwW42URXj3A7qoCgaiuoCCqCgoODS6ttq1OqU8wUajRoBn581q9ZSyFfo7u7h0V0/YHDdTaxeex2NWh094MVjetF1k1y5yuHDh+leVOS1117jk5/8JKOnTvPGG29w4sQJ6tUaR6eP8tqrr3N6bJx/8Xv/kuvXrqFab6CpKqPjp/mLP//vTEycodm0uOGGG/ja176GrusoioKu67iO2wmPmV+KopwLlIWzceNGHn/88Vn/kI8//vg1tYMfP36ce+65B4CnnnrqQ9eAbN++nV27dvHlL395waa50Pvh5Xjsscd47LHH3rXpvx/rJBXI2/DNf/dvuP/Ld9HTFaReLpJOnaUrGqYrGsbn8aLrOuFwGE03mThzlmyuyHQqRa5UIp3JYJomXV0xVqxY1hnABlBVFcPUzvtkp9KqRqDVCKsuGIZBLpdj/3PP88qLLxGNRnEcl3K5zLJly+jt7SXRs4hAIITH48O2XXKFEslkkvHxcUyvjz/4gz9oNfqGimU3iEQixGIx1qxaza233kpvby+1Wg1FUWg2G0xPn+Vbf/hNnnvuOYaHj3Ps+CkODR/BML2YHh+6ZqIqOrYLDgqu2/qyZ3w5C/x23HjjjRw4cGDWYwcOHGDbtm2X9elxZpUy81P8zK+ZFc7M6ma+T/uXO4/t27fPqqLmTvtKPm2vWbPmguExd3nnVmsLsU3mutQ85wvAudOfuXy7du0C4J577mH79u0XXK7jx4+ft17tripFUbj11ltnTftC3Ukz35cLVRtzl/lKKuaLVY/zrcvFts/lvIfiAxYgxVya235rA7FImHwuQ093jN5ED5lUGo/HQ09PL7blMjFxlqHhYSwHNMODLxCiaTscOnyEpu2wZs2aVtBoGpqmdcY3OjuD4nS6rzpjIK6LZTcI+QO4tsXw8DBvvfUWgUAAn681JtLVFafRaFAoFKnX6yiKRqPRwLIsvF4/4UiMf/iHf8DvD+I4DuNjE6xduxbDMEgmk9TrdcqVEj6Pl3w2TbVcwW42CZ87BNd1XQxDIRBoDch7va3DeavVKuVyufOcC30tpPan0naD2/4+ODi4YPNoVzfbt2/nkUcemfW3e+655231Z+/atWtW8CmKMmva7YrichqmC4XHfMv7yCOPdBrhhdgm81ULVzrPdgDOt14XMt/2eeihh+bdzu1Ktf339j7yk5/8BID77rtv1nznfiCZLyDmLvPF1u9S07zUuryd7SM+wAHi85gU81luvulGYpEwyalpRkdHCQaDTE1NUanUSKczHHxziFQmx+TkFE3L4YUXX+bYiVPcfOtvccfmT/Ppz9zFjTfdjOU6lM8dieX1+AGo1WqYuoHX9GA3moSDfqrlIoZhoLjQbDRYtGgRX/rCvXz5S1/itZdfYXx0jFw6w/3338+dd95Js9nE7/fTaDQwdA/1eqMTJL/3L/8lgVAQVIVsPsfw4aOkUikCgQC2bePz+Vi6dCmGYXTCwev1cu+992JZDppu0mg0OHz4KH/7tz/m1KlRTK8PVA3bckmnshw5doKG5XSC0bJag/8Lqf3PdeTIkVnfZzYKV9KP3A65b3/7252Guf0pcNeuXWzcuHFWGG7cuPG8BvNKuhyOHTvW+f2pp56aFbAzP4Ve6JN+u2FqN4YzX9tuPI8dOzYrvHft2nXJaV/ONpnvU/mVzrP92Nztun//fgD279/fqSafeuqpThfQfB9K5jbSANu2betMr71PtLfVm2++CcDq1as7y9KeRnu67XnPrQi//e1vz3r/2tOab/0uNc2Lrculto+4CgPENE0KhRLVcoWP3HILmUyGSqHM+PgEU2dTHDl8rHX4qqaRyeZ5861DnBodwzA8TJ6dJl8ok8nm2fvcfhTdQFFNvIEgaDoTZydxXZfe3l7GxsZQFJemVefpp5/m5Zdf5uBrrxDvijE+ehpDU7jjjju4/vq1DAwMcOutt7Jo0SJisQiRSASfz9vpsqpUKgQCAbriCYLhKAcPvsFUMsXk5BS2Cxs2bKBcrfHq6wc5fPgwb705xOTUWTTDQ7lcZmpqivHxcYaHh/F4vUQiEVauXMktt2zgBz/4Ac888ww9PT3kcjkcx6FUKlEsFjvnpRhGa2yn3V23kLZt29YZ93j88cfZuHHjOx5TeOSRR9i2bVvnU327oThw4MCsroS5/+hXsswzG692Y91uLC7HI4880lmuXbt2zWrk2o9v27Zt1jzaITAzuN7uNpnr7cyz/by52/VyXer5f/iHfzhrXhs3buw09nO7OtvL117e9riF67rnrXM7jGau58W2yeVMc751eafbR3wAA+TEiZP4vAEqtRquYrBmzSBeb5CXX3qd0dEJli5dQTqd5+TIGD09fdxw4wYG19/Ix27byLKVq8gUyjzz82d56/AxRk6Pc+zkKZoWOK7CipWrSKYzlMtVPB4PjuPwyiuv8Od//n32P7ePdDLFqVOnCIfDGIbBCwf285M9u7GtBmNjoxw+fJgnHv8xBw4cONd9pWCaJorqUqlUmJ6eZv+vX+TY8RFGx86QymRZvnIV1w2uw+P1sXrNWlLpDPVmg5MnT+K6LoVCgb6+Pn784x+zf/+viccTfOlLX+HTd97Fxz6+kc9+7re5acMt5HNFTMOLjULTcVFVHU0zsGyXpuXgolBvNBf8DR4cHOw05AcOHOCrX/3qO5peu/vg3RzwnOvthN6xY8dYvXp1p3HauXPnu7Z87+Y2mS9Y5o4DXGj84Up99atf5cCBAxft6hweHr7kdC4VHJc7zctZlyvdPuIDHiBjoxMcO3aSYCBKPlfCtsBVdG6+5WN4fSEWL1lBuVLHH4yy8RO3c9fnP8+nP/0ZNm3ezN33fYHf+vjHue/L95MtlPjJ/3iKdL7IS6+9xkuvvcbw8BEUNLK5HP2LB5icnKSvr4+H/9W/4nN33UW9XiWbTjJy/CiNWpXu7m5yuRzpdJIn9vyYX/ziZ4yOnWJ09BQe08Tn8xEMBlEUBcuysG2bgYF+ot1xsoUiHq8ffyAEqsY9X/gif/Inf8If7fhPLFu5inu/8CVU3aBhNanWG0S74xjnDut99dVXOXHiBC+99BKu6xIOhymVSni9XhRFIRQK0dPTQyAQ6Bwo4DgOur7wV5Zpfxps90Nfqvuq3XjMN3bR7haa203T7iqb25XQ/prboFxsHgulPc9vfOMbbNy4kQMHDnTm117euV1H7e62uf3qb2ebXKg78XLnOXM9Zm7LdlVwoSrpySefnLcb6Ur2lfa4w8x9Zebyz1z3d3LexqWmeTnrcrnb573Y5yRAFsCSpauJdS3C8AQZOnSUEyOjHDt+CtPwM9C/lNffGCIcjXP//VvZsOEWDN2D1xfA4/WyZNkKapaL7g/wH/94J3f99j2MnBzj+InT/Hj3T3j2uf1kC3mGhoZ55plnePLJJ4lEQlx//VpWrVrBR265BV1TOX78KPlCDo+h4zg2yeQU169ZzZnxUSzL4uzZs+eqD51QKICuq3i9HhKJBJ/a/GlOnR7jxMgp6pbN0OEjDB8+SqNpk8kXiHX3sPlTn2HlypUkEgk0VWf//l/zq1/9CttuHRywYuVqHnzgn/PZuz7PiRMn+I9/9Ec88h/+kGd+/gscxyEUChEKR1BUDdcFVdXetfK73ZC2/0kv9Onwxhtv7DQecwetZ3bTzHxO+0ie1atXs23btvO6EuYe7XKpebxbduzY0Wmsjx8/3lnediM2c9vP7GJ6J9tkvvfhcuZ5oU/g7a/2+zi3i6d9FNZ1113XWVdFUS4YTBfaV9rV3saNG2ct08y/tZelve5v97yNS03zUutyOdvn/drnJEDepnh3Lz5fkNdefZMjR09QLNeZnErzq337mZhMMnp6An8gxLLlKwmEIhie1mU/crkC+XyeeO8iMvkyz7/wEn1LlnN6fJKJs9Pc8pGPcvumO6jVW9083/3ud/nlz35O0B/AqjfIZbIkk1OUy0Xq9RpWvUYsFuHOO+9keHiYVatWsWTJYs6cGefoscPUar+5RIpt260zx3WNQ0eOYjsuK1etpliq8Ny+/fy/f/O3fO973+ONN4dIJBJEu2I8f+DX5ApF/s//60/5yx/8gDMTZ6nX69iOQz6fR1VVfvd3f5dbb72VYChEqVTiL/7iL8jn82iadu5SKlV0XScQCKBpWuc6Wu/GOMjM7/OZ2/0y9xN1+9PgxV4/d/obN26cNaB5qXm8W+6+++5OQ/Vnf/ZnnWWZ2ffe/qQ7cxnf6TaZbxtdap5zG9j5PnXPfGzmOMabb77ZOSlv5vTb87ycw5/bDW77+0wzB+0v1oV0JS42zUuty+Vsn/drn7tWKO4CHzv6v/0vd/HrA89jqgqRgI9KscCaNWtwHJVUvsiNt36UaKIX1fSxbNVqYt1RNFOjmMsDDo16jWg4SL1eplor8cKLz4NrEQgE+NIXvsifP7aL7du28f1Hv0vY5+N3f+erBP0ebLvKCy+8QFfPInyBIPFIjJ/9/Bl6uhPUGxa3fPQ2fvGrAxw7NcF0Jsf/83//FwqFApGAnz//3n/j58/8I7FFS1j3yc+RqTSpV6pMTU1Sq1YwDIN0MsXmzZv5+j/7ZxiGwd5f/ooXX3mZ558/wMjJ0/j9QSqVCigKmzZtOjdgHyOdzvLSSy8xOoMz2rwAACAASURBVHoafyjEv3vk33PzzTdjuw5erxev10soFKJeb9JsNvnsZjkEUbx/vvOd7/DII498KE+6FFdBBfKTJ3/O+Nka9aZLNl8hEI6RyRY5OTpKvWGRTGfw+oNkcznOTEyQyuQoFMv4AiEC4QihYJR8sUw41kVPT4J0Ok00EuOzn/0sv//7v8/ExCT/+PQ/8eILLxOKxjh6/ATZQhEUFXSdsfGzPLH7Jzzzi1/y7HO/5me/fJbegSXkChUOvvkmp0+fJp1MYRoaPq9JwO/tnCMC0NWV4KMf+wSGJ0ClZpHLl6hUa0RiMfb/+tfkiyVMr4+7Pv85XFRGTp4GQDNUUF10Q+XI0dag4BtvvIHjOMTjcVAUKoUSZ8+eBVUhEAiAqmM5UG+6NCzQjYDskeJ91T5iT8JDvC8Bsu7mQYJdBhXLoeGqlCsOlYaD5RoEo90Eo1HOTE1Ss5vkykUOHzvG1HSa6XQWMFE0nUAgSDFXpFKpEAmF+fnPfsZrL77M9avX0B2JMnL8OIqi8pO//x+Uq3UcVcUMxojE+3hz+BjLVl3PyjU38bl77ueWj91BIJrghz/6W0qVBn29i/jMHZt4bu8vKeWyNGtVsukMoNKwoGnDVDJD01WoNxw0Mwi6D8s10MwgbwwdJhCOUbdcvv71r+P3ewGoVcqYpo7VbJIr5mg6TbwBP5VKhVAojGl4gNa5GF6vl1yxQKVWx/AGaVgaTdeHo4VkjxTvW+XRPvRaunnE+xYggXAIfyCIi4JueHFQqJQbGIYHy7I6ff2KpmEYBqVSiWQmS6VmMTk1jeu0zofI5/MUcnkS8R423HAjf/79/05PVzcbbryJgM9PLBZrHcVk2UxNp3jtjTcYOTnK0mWriHX1MLB4GfGeRQwsW8nIqXHK1SYrlq/i9ts/ydq1axk/fYrvf+9RhocOEY1GaTabrXM0ylXKlQa1agMHDdUwUDQT0+PD4/UzlUzTsBy6urrw+PysXbsWj8cAxaFRb6IZ4DgW1Vq5U9UoigJua1NPJ6eoVMrYtn1uLEShXG2gKiaWLcewi/fHN77xjc6RTFJ9iPctQHrjPcS7usF1sK0mxWKRTCZDIBDoHK6qqmrnRk+VSoXpyQlKhRwT42Pkcxka1RrJqWmCwdblQVRVpasrSqPRYNWqVWiaRigYIRQKYztQrtao1Rr09/fj8/no6+sjlUrh9/sJh8MUi0U23HIzt2/ahOMqHHzjLUrVGpl8gVdff42z01P4A0Galo3jWFhWg4bVRDP0zp0ENU3DNE2y2WznHiVjY2PEYrHWJdsdhfZRuFbNppAtYKgadtNq3VfEbqKoKkcOH6ZcLhOLRTFNHUVxCYWDhCN+qnJDKSHEVWTBTzxQFAWPp1VtuIaLx+OhtyfBnXfeyanxMYr5Aou7u3B0lWq1jKpAuVwmn8+iOC4TExPUKnlq1SIr7D5c22b09Clu//htNBoNisUi+XyeVCqForrkcjlMj8p1161h2bJlnD41SU9PgpMjp6lWq4yemaCruwePt3Vb2dtuu41XX32VM+Pj2LaNquo0m018Ph/FYh1d16naNtVqtXVxRlWlVquhn/u5UCiQy+XwGBpHjx5F101s28ayHLxeE9u1sGmdbd4T76XmNDohqLjQtBtMT03Su6iHbL5AvW4TCscwFJ1gyCt7pBDi2q1AXMdGPdcT02w2se0moVCApUsXU6tVmE5O4fW2Dt1NpVJ4PAamoVMtV/B7PCzuX4SqKKxcsQKA2267jVtuuQXXdfnSF7/IF7/4Rb7yla+wdu1aenp6MAyDTCZDtVolmUzS39dLrVJlYGAAwzBoNBqsXLmSWCxGONrFiVOnWXfjTWSyecbPnGHlmtUEAiEmJyfx+XxYlkWlUiGfz+O6LrquY9t256tQKJDNZltX1rVtIrEogVC4VXlYFqqigNu6V7uh62iKiq5qBAN+VA10TWHk+FF0VSERj9ETC2NqCrlsCo+hyh4phLh2K5BQKNSpRCzLwqrZ5Ap5pqenOXDgANFEAhQXr8ckn8sQGFhCdywKtO7YpygKfr8fXVcpF4roeFmzcgX/85lnmJ6eZmrqLNVqlVQq1bq/iGFiuS7NZvPcuEkZXBXLcVB0A58/yD/9z58Ri3WTyZd56cUX+drXvkYuW+DVl1+k3rCwcak3LSKa1rr9bK11T/Suri7i8S4cxyHg9bbuLKgolEolFEUh4A9hmiaRSIRcJguoWE0baF3fyrKsVr8yDn6/l0Ihg+3YTE+dIZ9NU6k1CAaj9CT68PsMatWi7JFCiGs3QGKxGPV6Hdd1MU0PqsfF7/djGBpNqw6KQ73RIBGPY9tNXMcikViM4ih0xSKE/T7Uvn501UI3FFLJMwT9HuLxOK+89DIDixZTLZfx+zw4rkUsFqPRrFAulgj6A9iOTSgY5ujx42iGj3Q6zRNPPIHXF2Lp8hV8/Z99je54guvXrSeZTHYOte3p6SGbz+EqYDl25xIkPb0J6s0GuqrRaNTx6AbVWgMbl3Asim25BAOt+5toKtTrFoauEvQHcG0HXVVxHJdoKMzkxBg9XRF0VeXXB57n7FSScDTO2uvW8ZFbb8OSe94IIa7lLqxETy+u6+I4Lg4urqPQsC2qjSaNJhgeD5bdIBwOY5qt8YNoLExPvIuA10ckEulcat11XXAccrkcmVSScrnI5OQkuVyOkD+ArqooODiOQyadxOszAZicnCQUCtFsNjEMgzs/+znyxRJ3//a9DK67gbHxCaq1GsFwhFOj42RzBar1Jqqq47qty6u7bmv8xufzoaoqtm1TrbZuINVotI4q6+3t7ZwIqCgK9UbrKDOfz0ckEkPXW4Pw3nNX6NU1ldtvv52uaJTk1BRdsQiRUIDDw4fIpJMoji17pBDi2q1Aao0mPn8A24F6vY7f9FKr1fjFL39JtDvC4sWLCYbDJDNpPvv5z1HMl4hGo1jVZqf7yu/3o2kaHo8HwzCoVFr3R49GoxRyORYlErxaq6KrKpVigYNvHeSmGwZxbYdapcrZs1MEw2Gi0W4cRWfFmuu4acNH6BtYQqFcxnJdDK+XfKHA2NgYfm8reBqWhWVZVKtVDI+Jx+fFtm3q9TqhQJBGo4FtO50uur6+ASr1Bh5/gEAgRC6bxrYdVE1jZGQEwzAI+cNYVpPDw4fQVY1CMY+qucR7E9x11514PQGe3/8iAZ8HXAkQIcQ1HCCG7iEcbX36dnGpNRpUaw1yhSINq4mDQjqb46YVK8lkMiiKRjKZxGf60HWdybPTxLq6aTbLdMdCZNJTJBKL6OqKk0tnKEZzWOcue96s16jXKsTCAVzHYmL0FGcmkriKgc/nJ5/P4/MF6eruYSpVoFSuEIl2g6KRSk/TsG1QNYrlKpph0izVOlfFNU2TYDCI67qdc1c0TSObzTI9naRSaR3VtWzZMkqlErquo2oaXo+XQqHAUG4Ij+mh2bDO3bXdIRjwngshm4GBAW6+aQO5fIlFvb1ks1l64r0L9j48+uijpFIpoHUl3kQisaDv8/T0NI899ljnQoVCCOnCesfSuTyKZtC0XRwU6rZN03XJFos4qobh81EsV1A0Fd3w4DF9+LwBXKd1j/BQKILfH6RWb10mPRAI4PF4GBgY6HQfWY0a8a4omuuQOjuJqSpg1Snms7i2RTKZ7HSDeXxeLMvBccHjD2C7CpYD2Wwe11HQVJ1qtTVmU29a1K06aHSu1Fut1VA1jaZtoZsG/lCQfKlIKp2hXKmyfNkKgoEQpteH40LTtnBccAFV13AAVBWfz4/H50dTdRYvXsqa1dcxOjrG888fwOcN4PX4CQQW5kz03bt3c8cdd7Bjxw62bNnCE088seA7TiKRkPAQQiqQhTUxeRbLcmg6rUNgXcXGVVSqjSq+YICTp06heU3y1Sq33nordqNMPB4nM5XG0HXqTQtQ6eruYXz8BE6jTrWUbd0kStdxbRvXtuhf1Et6+gzTE+OEI37sqA9fLIodDDI6kaRer1Es5ilMZ9DMDKVSiWyugO2onJ1OUqk1QNXQTQ+qrlFv2ui6TqPRQFE9nSqkWCyiKAqu42AYBsGuAM1mk3K5jKIorF27lqNHjxKPx5kYH6VpO3i8Jo6tYpomzYaDrqmUq1Vq9QqO4xCJxbjhhhsYn5hgenqa9TcMoOutOzkuhOHhYbZu3QrA+vXrWb9+/bwVRDtYUqlUJwxm3nhpx44dnec9/PDDs6qbz3zmMzz++OOzQmTua9vPveOOO1i/fn2namlXRENDQzz77LM8/PDDDA0NsWfPnvNeL4S4hgKk3rTRdANF07FccFwNR9XQPV5CsS7C3d1oHpPRsTN89GMfx6rXKJerNJsWjabFkWPHWbQowXWrlzB6utXQ4TbRHRfHhkwmRdkwiQT8REJBatUi1YpLMZ8jGo1Sr7osXboU13UZHx+nf9kaYvFF+EJVurp7GB0dZ2JiAq/pwTTNTldVOpnC4/Gfu8yKgu4xsXEpFouYpomLhqYaVCt1DL2OYXjw+/1EQmG6u3tIJBaBq4Bj07BdcHVyuRygYdsKLvDFL3yBgcV92LaDz+dn5YrVaKoPTfPRaDhYzjs/DGt6epp4PM7u3bs7d3q7UBdWKpViy5YtnYDZvXs3mzZtYvPmzezdu5fdu3d3gmh6eppEItF6P2gdbTe36pnvtYODgySTSQAOHToEQDKZJJFIkEwmO3e927NnTyc05s5bCHGNdGEpSquLSNF0ao0mDqDpJt09vSwa6EfTdXwBP2gqYxNnqNbrHDl2lEq9RrXexOMLcHzkFPueP4DH5+9UMtlslu7ubvL5PGcnzzA5MY5X14iGgng1jXK+dSmUSCTC6tWrKRaL1GoNli9fTiqV4uDBgyTTGRRVwzA9dMd7iEajeP1+TMNDs9lsnQioqui6js/no9FotM5C13UMw+hcL6tWq2FZFo7jkM1mSSaTmKaJLxgETcW1HFzXBgV0w0DXDT7z6c/wx3/8x3zqU59C13VOjZ7GMDysvW6QWKybYDiComgL8h6kUikGBwfZsWMH27dvv2gX1szqZHh4mHXr1gGwefPmTgANDg52Gv9Dhw5d8Fan87123bp1nZ9TqRSbNm3q/D7zNe2Qar9ewkOIa7ICsShVygA0Gg6ap3VCoc8fRDc8FIp5wl3d9PUNUC5XWdq3FLvRpCvcRSQSoV5vcubMGV4cH+Gzn95Eo95ERyUYDOLRVNxmg3wuQyGXJRTwEgz4cJ06jtukmM+y//l9+MM9nBybYN1NtwLw5tAh8qU6pmnSqDc7h93qphddN7EsC13XKddqretaKQpeb+vosWaz2XrMhVKpxKJEL5lMptPYFYtFplNJNM1onZOSqmDrChoargoKrXGbm2+5BX8wRFd3D6bHx6mToyxfthbTY+DzBVA0L6lkbkHeg3g83gmGRCJBKpXqVBCXMvcGPNPT06xbt44nnniiEwz333//Zb+2Pf92YGzfvr3zvFQq1VmmmY9frGoSQnyIA8S2mzTrjc79vW3XpVSpUq3WSCcz+MNBIqEoPp9FvVqnUqnh0Q2OHx/B6/VSLFWoNZo0LIdjIydolHN0RbysX7OaydMjDF6/mumzkxwZyuNYTVxbR1EVfIYXVzXp7QmhegJsuLGHW27bSL3hkCuUWbJsNfWmQypToGlZlMsZ6rU6lmNTaTTxBYPkM63Ll6i4mLpGs17DspvnzgtxKJbyDPT1k82lSaWm6e9fhMdj4POYqLj4/F7sWh3Vo2M3GqDqKDgYpsn169Zx6vQYAwMDBIJRxs9MUas3KZez1GoNIrE4S5ctfsfb/502uhcbexgaGurMox2gl/PawcFB9u7dy+DgIIlEgng83vl95nK3Xz80NHTeuIsQ4hrowmqUi4T8Hlyndait67qUSiVwXEL+MOmzGSZOnqFRbODX/OSmcpw+McaSJcv4p2d+xtP/9E8omsqSJUs5e3aKnp5ewoEw46On+MTGj7J+cC2K3cC2anTFIiiKQq3cwO+L4lgqpqJTLVRYtXwNiwdWcPzEGbLZKrGefqoNF8MXQFHNVleVYeD1B6k2LSbTOTTTS8BnotEkGPBQLGQI+LxUyiUqlTK6rqFqAC6nT59CUR1UxaErFiCfmSLRFUJTFZyahWmaravxWhauovCnf/ZnVOsNMrkyv33Pl9hwy8do2lCtVsnlMhwZfouu6MLcUKqnp6fT2LfHRC4nWNoNfbsRf/TRR2f9bc+ePfN2X13Oa/ft29e6sdaM39vTmvt8IcQ1WoF4dI1irnVlXU0Bx3Hxek1cV8HQdKKhKKqroljgUU38Hh995wag+/sHqJ4cQUGjq7sLu1mj3rBYsWQJ1UKKnz71jywf6COZSdPX10ejVkdVFbq74pSKZbq74qB7CIa8uLbFmbFxzpw5g+2C1+OjZrUuUaIoSudLVVsZ2r4febPZRDcMVFwyqTQoGpqmEIl0oWkahUKrSmldQTiP3zQIBv34/V4MvYt77r6bJ598imbdQj93PxCPx8PJ06MMHznKXXcup1Zv4g+EUFQdbyDIa6+9RjqdpljMs3z5/e/4Pdi6dSs7d+7sHNV0uUc0tV+3b9++TjdS27p169i3b9+sMYvLfW1PT09nGjN/b3ezrV+/nuHh4XmP4hJCfHAt+D3R/8Pvf53XX3+dU2PjFIslbAsikSADA0tYuXIlqmagKAperx9d16nU6ng8HqrVOtl8jk99+g4cx+b4sWEMxeXjH92AV7M5eXwYq15GtaoEfCZBr4dMchq/xyQWjlAoFOiKxVpX0dV91BSTcO9S3jg+zsmJFJ+990ukszlMTadRr2DXKzQbdc6MneT1V18jlUrhi8S4eeMd6L4Amunh+PHjdHXFaTZsQpEI+XyepYuXMDk5gYbCnXd9mo/degsTE+MMDx3CNE0U4IknnuCll1/H9HgoFSutUs/j5aEH/wW33/Epent7CQaDVEtlQqEQr77yEoqiEAwG+b1//lXZK4UQ12YX1rJlyzqXIVEUsG3QNI1Go4GrtA7hHBsbY2RkhImJCbLZLIcOHWJkZATbtvnlz39BvVqjK9qN60I6W6RQaeINdBGL9xPsWkTf0pXYaISjcQLBMDYui/p6qZTyeHVQrAq1Yga/qbF0oI8liwfwGK3zOpxzlwtxHAfHaqA6LprrYCgQ8nnx+/2YppdauUIgECIYCOPxtI7SMk2zdda8z4+iqOSyBfK5IvV6k1Kpci4YvXzxi19kcPA6qtUqgWAAUOnvW0w4FiWTybSu/xWNYng9VOsNXFRMj49AMCx7pBDi2g2QRN8iPP7WBQgtCywXbNeh1qhjWRYA+VL53Ml8dfr6Bmg0LGwHMpkMp0+fZs/uPbzwwkugmtTqFmh+lq4axBPsJhBNkCs1qVoKmsdHqdakXGldgqRYzKO6DXwmBDwaqtvA0FyiYT+W3cDUNRQXdFUF18W1HTQFdE3Fq+vEImHq1TqqqjM9naJZbZJOp9F1A6fp0qg2MQ0vqqoyNTXF+Pg4tVqDeHeCYDCMbbtkMhkqlQpr167FtixqtRq+YJA1a9Zw440bCIciFEtlSuUKA4uXEAxHQNVIZbKcG2ARQoirwoKPgbQvhthsNqk2QTn3ab9er1OuVol0dWN4fSioncuUVKtVHLdGOp0mEg6S6G/dKCqZTFOtNSjXLTz+EJbmBRtOj59kIBHFcps0bZtoLELDsujp6cauFwiHQqg+k1wuxXSmjuLvopDNge5pHWWlqqguqC7omoauqBi6TsgfolwoEurqRVcNdMOgVqvjiXtw7Dr5fB7DMNB1nWbTxm62rtDb1dWFrplkMilCPi+ZTIZMKo2qtQbRHVxuv/12fD4f+WaRXC7H8ZGTVOsNmvUG8UQvluPSsORiikKIazhAVF0jGA5hnTsKy9DAch3q5y7/4TgqgWCQeLyHYrHMdDJNdzxBvd46XLYrFmFqKkkul+Ozn/8cN224mWMjJ3hm7z48hsriRJxUvopj2/h0h5BhoJteNBqEw90oDQMHlaDPj2VphMMefPEE0/ky3oBJvdnA0HQsB2wUULTWDaksG1ApFss4E2fJ5wpEYlHq9SaZZIZgOEo4HKWvb4D16wcJ+HwsXTyAY1nkcjnS6TSTZye4ad0g0WiUU6dOEQgEKJUq+Hw+li9fTqVSIRwOU29a2JbL2OgZdF0nEongL5bJZPOyRwohruEAUVuVhaqqOIDuUXBdF8uyqNUaeH2tI7MURaNYLNJs2AwODjI9ncI0Td5843Usy6J30SIi0TilikVXdx+J3gFefuVFmg0bu+5yePh1+rsDrFu1lKl0lr7uCOVKla6Qt3XklaeJGe2nL9qDFuzm6OkhgmjYDRvFbN00ynZcHFejaUG1blNrNLntE7dzNl3Aadr0DQzgOODg8vHbPkF3oqe1fl4f6dQ0jYZFuZjH5/PhOA7T09O4g9e3BtMVhWKhAKgMDg6SzWZJ9PUTCASoZXMEAkFM0+zc96Rd2QghxDUbIJphEO3qwnIcDA3qdRd/QEfTDHKFPIbpJRKJMnz4MD5fgEKpzJNPPU2xUMbnNdE0DU3T+OQnN+P1h3jl1YMUyiXuvvvzdPf0UcqnmBg7Q7PuMDmdZcMNg4SiYep2k+6eBKXsGcKxLupKgLrrUq/VKJUniXfFqNQtQqEw2XQGr2GguDCVPo6rGnT19rHlq1/HG4mztNKgVqtjej34g2Fs10FTDTQUcFq3z43FYpRKJVRVRVEUlixZwtFjhzl8+DAf/fhHWbJkCcdHThIIBlm9ejU+nw/DMCiXyyTi3VRqdSy7gW3pOI5DLBpmZGRE9kghxLUbII1GA6/Xi8fjQdPKOG5rDMTv9507j6JIIFiiv38xkUiEffueZ8WKFbiOQiAQIJtJ0d/fT6NpcWjoMNl8gdPjY8Tjr9DX18uBfXtZvCiO06gS6+7m+QMv85Gbrmfzpk/QLKdJ9C2hWiuSKjtkMhlGJkc4m6/hDXUTj/fTv3IFJ48dZt+vnsXnNVl33To2f/qzbLj1I+iGiaqZBAMGXtOLbhrohkndanbuLlgqlbCdJrqq4br2uTsQeunp6WHVqlWcGRvl1MnR1pV+DYNqtUa5WMLr9ZLP5wkGQti2TXcsSqVSwdBULNcBx8bQVNkjhRBXjQVvsYqVAh6/ieExcQDn3J0JNUPHdh0cXCYnJ6nVavzquedJZXK4isZNt9zCpk2bWL5iFeVKjdXXrSWxqJeBpUt48MEHCQQCpKan6esbYOXKVQwMLEFRDYrlOsPHTrH/hVfJVxpMZXNki63LpntNA4+hYbg2XtWlO+wlGjAI+wwifi92vc7IyAi/ddvH6R9YTKxnEdC6F4g/4MPr9aDpCuCgKC66puDzezonH2qadu46WS7+YICBgQFCoRCBQIDBwUH8fj/f//73Wbp0Kd/97neZnj6LosLRI4cpFQu4js3Y6VOcOHaUyfHTaMgguhDiGq5AKpUKhmHg8XiwLFCV1mG8mqZhW627+6FqnDk7SfP/b+/cgtrIzjz+b93F1RhJYINtjAEbafGUPdkkYmPWJJPN4vJ4qVpMslW7E29tFeysX8xDPI8Mj2M/wMOwLvywO04ekgGqNhnPQirJWAyJYcbjsTeDBcYSNr4CkgzmIoQurd4HuTvdrTtgG/D3q6Ks7tPn0i35+5/vnD7nCwZx9OhRaDQajI6OwmazIRwORzYtLN6N4uJicBwH5/ht3LhxA/X/8DYe3pvAF0PDOFCxD867D5CXqwcLNW7euoPiokJoNAosLXrxdNGDZ14//EtBZGkVyNOrkKEIYPz/vsKjidsI+eahCDPIz9uGktI9WFhYwUrQD6WKgUqpQpgBFAolwhwH9XOh4Nd5sGwQSoaBUqVGyB9AILCCcDgEfaYOBpMRFRUV+FHdMRgMBhQWFmJ3SQm6urpQX1+P7bk5+MVHv8czjxtW63cw6RyHVqvFttxsFNDmgQRBvM4C4g8EwCgUyMjKBMsBShWEXjqUCvxNzRFszzNgaOgLFO4owsS9u9DrM+C4MwGFQoFgmIXX68V//+IS/u2n/wq9Xo+bN66jsrwCrN+PA+VluD7nwhsHD0KJEO5PTsDPMpifXcDVL77GD75bDq1Wi3ylBhptEDqtH4tLPsxN38WjCTt02kwEFmahDi+DYxX425rv4q7TgZKKSsw9eoLs7GwoFCqEwmEACjAKFaBgEAYDlg2CDUVeSdao1NBo1WAYDiE2gDAX2dF37969+PKra1hY8sJkMmFychJLy8vwLS0gb1sOMjN0+ObPXyM7Q4O/f6sW008eoqKiAqbt25CXnUm/SIIgXt8hLJ/PB7/fj8zMTHAcIosJQyyWnnsm/NtYRcW7UVJSivn5BTx48AAFBZHhqrn5ZwiDQ9m+MgDA5L0JZOp02L2rGDe/vo5vbt7AyrIPt+23UbRzFzRqPe7fn8bcog9KlR4ajQ46jQZMmIXfu4iQbwFZGmCXcRvKi40oyNVgjykXhyrLUGTajsVnHtweHcH1619FYnyEWIRDwcjYG8JQqiL7ZXEsK8QBYdkQ2HAI4XAIITaAYNCPQGAFoVAA8/Pz2LdvH6ampvDll1+ioMAEx/g4DAUFmJ314Kl7Bqzfj+zMTGToNZiccML+5xuYvDeBu3fG1vz8nU4nGIaR7EUFRPamYhiGfvEEQWxcDyQQCEChUAgR68LhyHYmPp8PRUW7wLIshoeHsbi0DJVKg4KCgkio2MwcTLlm8K2//g7C4TD2lZZAoVDgrdrvwzUzja+G/4T5WTcKDEbkZOgxMzWN0pI92FtahmvXrsFoMmLX7hI4bo8jS8NCrdVCr+KgytCAZTmA9SOsALIz1HjmmoZKqUW2lsHje04cOPRdPLznRDjMwb+yDJ1OB7VGB40uA0qOAxAGy4YQDnDQZ2QAAFiWhd8f8UYYhgPHcQiHw3jw4AGqqt7A/MICvnfkCGZnZzEwYMPi/DyyMzPhJY4caQAAE1JJREFU9/mg0Wig06rBsUFsy83E1OP7yNAoodfrX9gXPTIyQr92giA2tgeiVCqhUqmQn58PvR5QqwGVSgElw2H7thyseL0AE4Lb9QSPHk+CZUMwGPJx9/4kVgJ+3HbcRjDMIj/PgImJCVy58hmePHmE4pI9yN6ejzfe/BY0+gxkZmkxOzsNv28BOVlaHPyrN+B2z6GwqPi59/PcqIcC8C7O4dncUywtzmHZO48MvQbbcjJRtCMfO43ZCHrdOFRZAm5lDnMzT7C88AzhwAqUCEHNhKFUAEolE5nHYVmEQiEhWmEwGATDMBFR0OmwsrIMvV6L/HwjlpZ8UKs14DjAZNyOQmMeigq3QxFexuz0Q3B+H+p++ANYzPthNORCq13XfS3hdDqFf6uqqqK8lHjH/f39kh2L5cRKS1ZmdXU1Ojo6hHwdHR2Sejo6Ouh/I0G87gISCK4gI1MHrUYFvVaNYBAI+sPIzc7BrGcGt8f+jIf378BYkAOtTgHfyjweTz/GtGsKObm5KNy5A8XFOzE2Oo5C0w5cv34djsm7eDI/B/v9+zj3nxehyczB9u25+GLwt9CE51H9ZiVmZ2bgnn6K8TsTmPf6oFRrwXIMfMEQGJUOmswcKLQZCDEK6LIyoNYpkZ2pARNaQGjhISZHPod74gbmpu5i4vYtfPP1F3g4cQcMG0SGRg02FMCKdxn+lRXk5xsQCIag02dCqdYDCg2eeuaxe/duTM88xuLiPHKy8/DwwQyKdu7FgYpKaNQMbJ9dBuubxY/rf4RHjlH0/08vqg7sg2X/PswvTiPPoFu376G+vh4OhwMA8Omnn6K+vj7lvMeOHRMEuL29XTIc1tzcjPb29phpyRgbGwPHcXA4HGhpacGvf/1ryTFBEK/5ENauPWWYn4tEq9NoIsGZlAwAjgUbCkKlVkGh5MAG/FCpIj17XYYWJSUl2FFchGLdHnAhDqZsAyYdDtTV1YFTh/Gb3/0Bbo8bu3eX48GTKewvzsT3vvdt5GWpcHXoGtxPVag5Ug0F40YkpuBf/sKIbFMSBgOFVguOZaF8vo5DwYagCLIA6wPjD+NPQ9ewzKoRCIaxzWDEntL9UOv1WPaHodBoseT14e/qjiErKwvepQX4lrzYWVSIFa0aTx4/hErJ4fPBK/iPfz8L+8g4gv4gCowGPL6vhmfqPnp/+V8w5W+H9XAVvHMz+H3fJ/AFvNCqgti9Z8+6fQ/l5eU4f/486urq0N3djZ///Odpey9lZWU4c+aM5PzFixcFYTpz5gwYhokKZRuPn/3sZwCAsrIyWK1WybG4ToIgXlMB+f5bJ9Dzy67IOgydDiqVF0rlX7Yz0WXon29GGFmc5/P5oFhchF6fBZ/Phz/89jMY8gz4tuVNTE9PQ60B5ryzcE9Noai0FBzLYsY1BZWfg3ebGtn796C0tBQ+/yyuXr2KE29VCus0+OGWSG86LLQhHA4DnDSoFKNUQKVicKBsLzzzPjyecsMz9RCuqWk8W/JibtGPEACVWou7zts4cOAAjhw5ghXvMv732lU4HXdQVFyAwIoXkxN3Mf1oEttyMzB45Xc4aDmA2akxZGo5rHifIXOnEXlFJix7V+DzzgMIwGTKxfd/+I/r9j2IDbF4+CoVHA4HysvLJcfi8sRp4qEygiBIQNbmgewuxT/9y2n0fdKDzz8fwtTjp4JB54dFFAoF2BALjVaH5eVlLAdYbM9TYG5xCd65OYT8IQw+HcQOgwFXr15F1vZM5D2PYmcymbAw8wjZ2ToUFeXDYDBAodQhFDYi4F+GUqkQREM8Bs/XzbIRIVEwf0nnRUShAHYV70ROXgj5+flYDrDwBVgsLPux6PODhRL+IIuVZS/+OGDD6Mg34MIsGCayViQ/LxPepQVw4RD++KfPUV5mxuXffIJ3/vkk9u7eDb/PjWLTNgSWF7ES8iI7Kxd6fQ5MpaU4evzHMO0oWfcvuKOjI24Y2kTiw8cZ6+/vxzvvvIOhoSHJs4zlsRAE8ZrBEVsKh8PB8V9rX18fB4BzOByS88+jUHIOh4PjOI5rb2+X5LFarcJ18uOmpiauvb09Zlq8MjmO46xWq5AW61iclyCIzQFtvrSF4YeaYs0rtLe3o7y8POotq7q6OlRVVQnDe8eOHZN4H11dXWhpaRHSxHMr8cokCGJrsu4x0QmCIIjXA/JACIIgCBIQgiAIggSEIAiCIAEhCIIgSEAIgiAIggSEIAiCIAEhCIIgSEAIgiAIEhCCIAhiC6OiR0CkQ3d3NwDAaDRidHQUp0+f3pDtdLlcuHDhAhoaGmCxWOiLIwjyQIhkdHZ2wm63RxnTzs7OhMa2ra0tpTIbGxvhdrsxODgoEY9kZcjLc7lca77PRGUMDAykJB6x2m2z2dDW1ib5E8Ofi/VMY7Ur1ndCEOSBEBsOs9kMl8slMZx2ux1ms3nd6lir1/EyvJbGxsak19jtdvT29kadd7vdccWns7NTSLPZbOju7hbq4oXDZDJJxMjj8dAPkyABITY+FosFPT09qK2tFc6Njo7i5MmTwrAOT6IeOt/rNhgMCY1ua2srAAjltrW1CefEPXf+HG+ET548CQDo6emB0WjE2NhYVJvi1RXLqPPClOo9dnd3Y2xsDA0NDVEi4na7YXwef0aOx+MRyrNYLJK65PlcLhdGR0ejniFBkIAQGxK+9+tyuWAymSS94ra2Nrz77rvC+QsXLsQ1rjU1NaitrY0y4r29vYIhF/fA3333XVy4cEFIE5ch76nLDbLZbEZjYyPsdjsGBgaENsWrS95Ws9ksCOaFCxdSuke51yBvUywRcrlcEjGQP2u73S6pq6enBydPnkRPTw/9MAkSEGJzYDabYbfbBaPGD1+Je/DiYRY5Y2NjgoG1WCwYGBiQpPMGU+zlxCrj6NGjAIDa2tqE8yN8OUajMWq4J1FdPT09EvFI5x7jwQsKL0K8h2M0GuF2uxPmFXsgNpsNZrN5VW0gCBIQ4pUhHsbih6/kQzfJDKgY8bAM72mIj+MZSfF1YjFIlWR1mc1mjI6ORolLsntM5sHJh8p48Yg3rCV+brzns5HfUCMIEhAioRGUGzUgMifR0NCAxsbGqLmCRL12cc9bbGDtdjt6enriGsp4cxarMeax6uKHi2w2myAiqdzjWtoj9pDEz9dutwsCY7fb4fF4JF5Xb28vXC5XQq+NIDYb9BrvFsVsNmNgYEAYvuKNnXw+IJbHUVlZCZvNJjGG/OdErwMnKiPVfDyp5uG9LJfLldY9plOv2+0WyjQYDJL7qqysFD7z19TW1qK1tVX4MxgMaGhoIPEgyAMhNgf8G0L8PITJZEJNTY3k7SqDwRBzaKaxsRGdnZ0YHBwUruPLtNvtMd+uMplMMBgMwltYjY2NaGtrw+DgIIDI8FO67Y9Xl5yTJ08KE/jx7jHVoTN+slxcr7jtp0+fFu7LYDAIHlGyIS6xmIlfNiCIzQzFRCdeOuK3wV5H4r2RRhDkgRBEHGw2m9Bzf53fTkrFUyEI8kAIgiCILQtNohMEQRAkIARBEAQJCEEQBEECQhCbD/5VXtqGnSDiQ5PoW9DwxVp9zW9suNHbne76CD5fZWWl5NVYfjuTZOXFq7e7uxsWiyVhPBH5/l58GbTWg3hdoNd4tyhy49XW1gaLxbIhX5+NF5djLSTb+DAZydZp8FumiLdT6ezspP2vCADA/OXLcJ44IRxnHDqEyhs3AAArd+7Avn8/3nyJffexw4exs60NuW+/TQJCpA+/IhuAsL24x+NBa2tr0hga8tgg/OaM4l52rF53KqvIE8XlWI0Xw29mKN/ZN9U4IalcF2vLlNraWgwODkry8wsmU33eLpcrYXyUdOK5EK+O6XPn8Pi99yQCMXnqFMYOHxZEhDwQYtPgcrng8XiEBWwej0difBLF0EgUGyQRqcYDSRSXIx0sFouwZQm/L5V4R95U44Skch2/bYvc4+BFUhwbhX/2qT7vRPFRUr0H4tXy+L33YBkfl5wr+egjjB0+jPnLl6Hdvz8qz9cMI3wWC4/ck5F7LfHyidMyDh0iASHSQz4+39DQIAkwJTY8iWJoJIsNEtdlTiMeyHpgNBoFYzs6OhplWFONE5LqdadPn47aqyvR9iypPm/+efH3JPai1hrrhHg5Q1cZhw5BV1ERlSYewhIzeeoUij74AIVnz2L+8mWJp+I8cUIQhulz5zB56hRKPvooKl+iNLkIkYAQSUl3AjdWDA15BL50WWs8kFhtk0+WxzKo8bYKSTVOSKrXiSfZeY8g1U0jVxuzZC2xToiXg/7gwbSuf3rpkiASuW+/DeeJE1i5c0cQIf5z4dmzUfl4T6fw7Fl8zTCCgMjLfFFeCAkIETeGhjz+xYsWsXiks/GgzWaLKSCpxglJ5Tq73Q673S5pl8lkQmVlZUq78q42ZsmLjHVCrA/a/fvh++ablK+XeyPyISfL+DjsoiEvy/i4xLuxy4bDYpW3GlFLFVoH8pqTLIZGvNgg8qBV8vUSa40HshosFgsGBwdTmvQWn0/3On5+RX7PY2NjScVjtTFL1iPWCfHi0VVUYPnmzZiGnJ8DkV8vZ/nmTUn6mxyHNzkOZZ98gns/+YnkWj6N/9NVVMQsMx1RIw+ESJlEcUJMJpMkrkdlZaVkSKumpkboBdfU1ER5DWuJB7IaeOMtnutJdo9ig5/sWci9q7a2NslLBeI5ED42ivy+04nLkmo+ALTuZANR9MEHUa/pTp46JQwnycUl/6c/xfS5c8J8BT+HMn/5Mp60tsZ9c0ueT3ytPE0sSusJLSQk0vJWyFBtTCjGyMYi3XUg8d6mmjx1Ck8vXYqZJs8nH94aO3wYyzdvCkNiL2IdCAkIkZDOzk7JPMjrHAhqIyOOC08QLwsSEIIgCGJV0CQ6QRAEQQJCEARBkIAQBEEQJCAEQRAECQixaeD3aeL/XsRCPj7oUrppBJEOTqcTjOh11XSorq5Gf3//mttQXV0NhmHQ0dGxIe6dYRgwDIPq6urkhRw+TAJCpI7NZkNvby9aW1uFP6PR+FJWg/OYTCZaL0JsGQEbHh4Gx3E4c+bMS6u3v78f5eXlMcWsr68PHMehsbERzc3NsQs4dy4iHgcPRv6VrYInASFiMjg4GLUCml9kZrfb0d3dLfFOuru7hevE5+WI08QrvcXl8dt7yD0Q/lh+HbG54Hu+8l4x3zvn05xOZ9J8TqcT1dXVaG5uFtJieQu8ERXnjdeORL1zvjcvr6u5uVn4zLcpXv2fffYZqqurBY8kWXuqq6slz6WjowP9/f2S41g0Nzfj2LFj6Ovri0obHh5GXV0dAOD48eO4ePFi7C/r7FngV78CLl2K/LvOiwgBAByxpbh16xb34Ycfpnz9hx9+yM3MzHAcx3Eff/wxd+XKFY7jOO7KlSvcxx9/LLnu1q1bkjpmZma4999/X8gjrptP43n//feFeuRpxOagqamJa29v5ziO4/r6+jir1SqkARCO+/r6OLFpEedrb2/nmpqaOI7jOIfDwQGIWyYPf10q7ZCnAeD6+vqENjocjqgy+/r6JHn4z7Hq5z/zZSZrj9Vqjbpf+XEi5Nc4HI6oZyS+ryj4vC/I1JOAbEEBERv+RFy5ckUw/nIjzx8nMvjy8+LjZCJBArL5kBs7seGSG1Wr1SpJExs4uTGOZyzjnU/WDjFWq1XSrnj3wxvlpqamKGMcS0BSfS7i5xDrOKHxj1FfLJFNVsaLhDZT3GIYjcaU4oG7XC6Mjo5GxfCOFcMDwJrigoiHuiiWxeadB5BjtVpjDvUAQFVVFRwOB8rKyqLS4pW31nbESquqqooaGoo35ON0OjEyMiK0eb2ey3oSa07kVUJzIFsMPoZHrG2+Ozs7hbmHnp4eIba5GPHEe2trq7Dv1VrigvDzJxaLBa2trS9lZ15ifYllVIeHh+NePzIyIjF2z0c7hL90jHSq7YiVNjIyIpmnqK+vB8dxcDgcUXOE58+fT3tDynSfy3p8D+LyeQFb7fMkASGiEG+zLu79A5F4EjabDWazOWpTxHgxPPgY4PEmyFPxdvi6Y50nNgdNTU3CpG9/fz+sVqvEcJ0/f15IExs1eb6UXj1dZTvkabyx5Q0tP/ksN8D8ZPTx48fX/bmsN1arVajv008/RVNT0yv7TdAQ1haktrYWJpNJYuQNBoMwXMXH6OD/5UUnUQyP06dPS+JfpONFpBNng9i4dHV1gWEYtLS0CF6FHP4tJHEPX55P3vtPpddttVrBMAw4jkvYjq6uLlRXV6OlpQVWq1UYTiorK0N7e7vQPj6NH2bj61iN4U/luawnQ0NDQn1WqxVDQ0Ov7DdBu/ESBLF2Q8IwkjmPzYbT6cT58+fR1dVFXyZ5IARBEKnR0dGBlpaWtD0jgjwQgiAIYpXQJDpBEARBAkIQBEGQgBAEQRAkIARBEAQJCEEQBEGQgBAEQRAkIARBEAQJCEEQBEECQhAEQZCAEARBEAQJCEEQBEECQhAEQZCAEARBECQgBEEQBAkIQRAEQZCAEARBECQgBEEQxCtm3UPa3r17l54qQRDEawCFtCUIgiBWBQ1hEQRBECQgBEEQBAkIQRAEQQJCEARBkIAQBEEQBAkIQRAEQQJCEARBvHT+HwFCLctvMF4fAAAAAElFTkSuQmCC;imageBorder=default;" parent="1" vertex="1">
          <mxGeometry x="920" y="40" width="400" height="280" as="geometry" />
        </mxCell>
        <mxCell id="hiTW0kRV3U5gcolYEDu1-6" value="3" style="ellipse;whiteSpace=wrap;html=1;aspect=fixed;fontStyle=0;fontSize=36;fontFamily=Times New Roman;" parent="1" vertex="1">
          <mxGeometry x="900" y="20" width="40" height="40" as="geometry" />
        </mxCell>
      </root>
    </mxGraphModel>
  </diagram>
</mxfile>
